<svg width="800" height="800" viewBox="0 0 800 800" fill="none" xmlns="http://www.w3.org/2000/svg">
<path fill-rule="evenodd" clip-rule="evenodd" d="M408.333 94.4735C392.986 91.8655 372.066 91.6678 334.326 91.6678C270.436 91.6678 225.024 91.7205 190.594 96.3285C156.865 100.843 137.484 109.311 123.396 123.398C109.289 137.505 100.833 156.827 96.3247 190.363C91.719 224.619 91.666 269.774 91.666 333.337V466.67C91.666 530.23 91.719 575.383 96.3247 609.64C100.833 643.177 109.289 662.497 123.396 676.603C137.503 690.713 156.825 699.167 190.361 703.677C224.616 708.283 269.772 708.336 333.333 708.336H466.666C530.226 708.336 575.383 708.283 609.639 703.677C643.173 699.167 662.496 690.713 676.603 676.603C690.709 662.497 699.166 643.177 703.673 609.64C708.279 575.383 708.333 530.23 708.333 466.67V452.097C708.333 400.897 707.973 376.627 702.539 358.337H598.209C560.449 358.337 529.589 358.337 505.229 355.06C479.763 351.637 457.686 344.227 440.063 326.605C422.439 308.982 415.029 286.904 411.606 261.439C408.333 237.077 408.333 206.219 408.333 168.458V94.4735ZM458.333 120.317V166.668C458.333 206.659 458.386 234.137 461.159 254.776C463.839 274.697 468.633 284.465 475.419 291.25C482.203 298.034 491.969 302.829 511.893 305.507C532.533 308.282 560.009 308.335 599.999 308.335H667.316C657.433 298.75 644.773 287.266 628.333 272.469L496.373 153.706C480.193 139.144 468.153 128.396 458.333 120.317ZM339.183 41.6668C385.336 41.6545 415.153 41.6468 442.596 52.1778C470.039 62.7092 492.106 82.5778 526.243 113.318C527.419 114.38 528.613 115.454 529.823 116.541L661.779 235.304C663.186 236.568 664.573 237.817 665.943 239.05C705.399 274.538 730.913 297.486 744.636 328.301C758.359 359.113 758.349 393.43 758.333 446.497C758.333 448.34 758.333 450.207 758.333 452.097V468.55C758.333 529.807 758.333 578.329 753.229 616.302C747.973 655.382 736.903 687.013 711.959 711.96C687.013 736.907 655.379 747.976 616.299 753.229C578.326 758.336 529.806 758.336 468.546 758.336H331.452C270.194 758.336 221.672 758.336 183.699 753.229C144.618 747.976 112.986 736.907 88.0407 711.96C63.0953 687.013 52.0247 655.382 46.7707 616.302C41.665 578.329 41.6653 529.807 41.666 468.55V331.454C41.6653 270.196 41.665 221.675 46.7707 183.701C52.0247 144.62 63.0953 112.989 88.0407 88.0425C113.006 63.0778 144.743 52.0192 183.962 46.7705C222.094 41.6668 270.856 41.6672 332.45 41.6678H334.326C335.963 41.6678 337.583 41.6675 339.183 41.6668Z" fill="#FF0004"/>
<path fill-rule="evenodd" clip-rule="evenodd" d="M342.11 443.26C355.04 448.107 361.59 462.52 356.74 475.447L306.742 608.78C301.894 621.707 287.483 628.257 274.555 623.41C261.627 618.563 255.077 604.15 259.925 591.223L309.925 457.89C314.773 444.963 329.183 438.413 342.11 443.26ZM251.011 448.99C260.774 458.753 260.774 474.583 251.011 484.347L235.355 500L251.011 515.657C260.774 525.42 260.774 541.25 251.011 551.013C241.248 560.777 225.419 560.777 215.656 551.013L182.322 517.68C172.559 507.917 172.559 492.087 182.322 482.323L215.656 448.99C225.419 439.227 241.248 439.227 251.011 448.99ZM365.657 515.657C375.42 505.893 391.247 505.893 401.01 515.657L434.343 548.99C444.107 558.753 444.107 574.583 434.343 584.347L401.01 617.68C391.247 627.443 375.42 627.443 365.657 617.68C355.893 607.917 355.893 592.087 365.657 582.323L381.31 566.667L365.657 551.013C355.893 541.25 355.893 525.42 365.657 515.657Z" fill="#FF0004"/>
</svg>
