<svg width="28" height="28" viewBox="0 0 28 28" fill="none" xmlns="http://www.w3.org/2000/svg">
<path d="M23.3337 15.1659C23.3337 20.9992 19.2503 23.9159 14.397 25.6076C14.1428 25.6937 13.8668 25.6896 13.6153 25.5959C8.75033 23.9159 4.66699 20.9992 4.66699 15.1659V6.99922C4.66699 6.6898 4.78991 6.39306 5.0087 6.17426C5.22749 5.95547 5.52424 5.83256 5.83366 5.83256C8.16699 5.83256 11.0837 4.43256 13.1137 2.65922C13.3608 2.44805 13.6752 2.33203 14.0003 2.33203C14.3254 2.33203 14.6398 2.44805 14.887 2.65922C16.9287 4.44422 19.8337 5.83256 22.167 5.83256C22.4764 5.83256 22.7732 5.95547 22.992 6.17426C23.2107 6.39306 23.3337 6.6898 23.3337 6.99922V15.1659Z" stroke="#2667FF" stroke-width="2.14" stroke-linecap="round" stroke-linejoin="round"/>
<path d="M10.5 13.9993L12.8333 16.3327L17.5 11.666" stroke="#2667FF" stroke-width="2.14" stroke-linecap="round" stroke-linejoin="round"/>
</svg>
