<svg width="800" height="800" viewBox="0 0 800 800" fill="none" xmlns="http://www.w3.org/2000/svg">
<g clip-path="url(#clip0_978_351)">
<path d="M14.266 361.998C14.8206 362.07 15.3691 362.106 15.9128 362.106C22.1628 362.106 27.5941 357.467 28.4238 351.105C52.6222 165.344 212.364 25.2625 400 25.2625C502.364 25.2625 597.969 65.7656 669.207 139.316C674.058 144.327 682.057 144.455 687.067 139.6C692.078 134.745 692.207 126.75 687.352 121.739C650.453 83.6422 607.169 53.6922 558.702 32.7219C508.519 11.0094 455.122 0 400 0C302.271 0 208.178 35.6266 135.058 100.319C62.5784 164.444 15.8113 252.348 3.37065 347.842C2.47065 354.761 7.34877 361.098 14.266 361.998Z" fill="#FF0004"/>
<path d="M400 690.526C393.024 690.526 387.369 696.183 387.369 703.158C387.369 710.134 393.025 715.789 400 715.789H517.896C524.872 715.789 530.527 710.133 530.527 703.158C530.527 696.181 524.871 690.526 517.896 690.526H400Z" fill="#FF0004"/>
<path d="M400 774.738C193.369 774.738 25.2625 606.632 25.2625 400C25.2625 393.024 19.6062 387.369 12.6312 387.369C5.65625 387.369 0 393.024 0 400C0 506.843 41.6063 607.293 117.158 682.843C192.708 758.394 293.158 800 400 800C406.977 800 412.631 794.344 412.631 787.369C412.631 780.393 406.977 774.738 400 774.738Z" fill="#FF0004"/>
<path d="M717.381 156.516C713.131 150.985 705.202 149.946 699.669 154.196C694.136 158.446 693.098 166.375 697.348 171.908C747.978 237.805 774.737 316.678 774.737 400C774.737 587.636 634.656 747.378 448.895 771.577C441.978 772.478 437.102 778.816 438.002 785.735C438.83 792.099 444.259 796.736 450.512 796.736C451.056 796.736 451.606 796.7 452.159 796.628C547.653 784.189 635.558 737.422 699.683 664.942C764.373 591.822 800 497.73 800 400C800 311.063 771.431 226.867 717.381 156.516Z" fill="#FF0004"/>
<path d="M92.6316 400C92.6316 393.024 86.9754 387.369 80.0004 387.369C73.0254 387.369 67.3691 393.025 67.3691 400C67.3691 543.561 158.832 670.43 294.961 715.702C296.283 716.141 297.627 716.35 298.949 716.35C304.241 716.35 309.172 712.999 310.933 707.702C313.135 701.083 309.554 693.932 302.933 691.73C177.146 649.899 92.6316 532.663 92.6316 400Z" fill="#FF0004"/>
<path d="M686.316 311.58C693.293 311.58 698.947 305.924 698.947 298.949C698.947 291.972 693.291 286.318 686.316 286.318H614.736V210.529H618.947C625.924 210.529 631.579 204.872 631.579 197.897C631.579 190.921 625.922 185.266 618.947 185.266H614.736V147.369C614.736 140.393 609.08 134.738 602.105 134.738C595.128 134.738 589.474 140.394 589.474 147.369V185.264H513.685V109.474H517.896C524.872 109.474 530.527 103.818 530.527 96.8426C530.527 89.866 524.871 84.2113 517.896 84.2113H513.685V80.0004C513.685 73.0238 508.029 67.3691 501.054 67.3691C494.077 67.3691 488.422 73.0254 488.422 80.0004V84.2113H400C393.024 84.2113 387.369 89.8676 387.369 96.8426C387.369 103.819 393.025 109.474 400 109.474H488.421V185.263H400C393.024 185.263 387.369 190.919 387.369 197.894C387.369 204.871 393.025 210.525 400 210.525H488.421V286.314H400C393.024 286.314 387.369 291.971 387.369 298.946C387.369 305.922 393.025 311.577 400 311.577H488.421V387.366H412.632V366.313C412.632 359.336 406.975 353.682 400 353.682C393.024 353.682 387.369 359.338 387.369 366.313V652.629C387.369 659.605 393.025 665.26 400 665.26C406.977 665.26 412.632 659.604 412.632 652.629V614.733H589.474V652.629C589.474 659.605 595.13 665.26 602.105 665.26C609.082 665.26 614.736 659.604 614.736 652.629V614.733H618.947C625.924 614.733 631.579 609.077 631.579 602.102C631.579 595.125 625.922 589.471 618.947 589.471H614.736V513.682H686.316C693.293 513.682 698.947 508.025 698.947 501.05C698.947 494.074 693.291 488.419 686.316 488.419H614.736V412.63H690.525V467.368C690.525 474.344 696.182 479.999 703.157 479.999C710.133 479.999 715.788 474.343 715.788 467.368V412.63H719.999C726.975 412.63 732.63 406.974 732.63 399.999C732.63 393.022 726.974 387.368 719.999 387.368H715.788V332.63C715.788 325.654 710.132 319.999 703.157 319.999C696.18 319.999 690.525 325.655 690.525 332.63V387.368H614.736V311.579L686.316 311.58ZM412.632 412.632H488.421V488.421H412.632V412.632ZM589.474 589.474H412.632V513.685H488.421V551.58C488.421 558.557 494.077 564.211 501.052 564.211C508.029 564.211 513.683 558.555 513.683 551.58V513.685H589.472V589.474H589.474ZM589.474 488.421H513.685V412.632H589.474V488.421ZM589.474 387.369H513.685V311.58H589.474V387.369ZM589.474 286.316H513.685V210.527H589.474V286.316Z" fill="#FF0004"/>
</g>
<defs>
<clipPath id="clip0_978_351">
<rect width="800" height="800" fill="white"/>
</clipPath>
</defs>
</svg>
