<svg width="800" height="800" viewBox="0 0 800 800" fill="none" xmlns="http://www.w3.org/2000/svg">
<path fill-rule="evenodd" clip-rule="evenodd" d="M408.334 94.474C392.987 91.866 372.067 91.6683 334.327 91.6683C270.437 91.6683 225.025 91.721 190.595 96.329C156.866 100.843 137.485 109.311 123.397 123.398C109.29 137.505 100.834 156.827 96.3257 190.363C91.72 224.619 91.667 269.774 91.667 333.337V466.67C91.667 530.23 91.72 575.383 96.3257 609.64C100.834 643.177 109.29 662.497 123.397 676.603C137.504 690.713 156.826 699.167 190.362 703.677C224.617 708.283 269.773 708.337 333.334 708.337H466.667C530.227 708.337 575.384 708.283 609.64 703.677C643.174 699.167 662.497 690.713 676.604 676.603C690.71 662.497 699.167 643.177 703.674 609.64C708.28 575.383 708.334 530.23 708.334 466.67V452.097C708.334 400.897 707.974 376.627 702.54 358.337H598.21C560.45 358.337 529.59 358.337 505.23 355.06C479.764 351.637 457.687 344.227 440.064 326.605C422.44 308.982 415.03 286.904 411.607 261.439C408.334 237.077 408.334 206.219 408.334 168.458V94.474ZM458.334 120.317V166.668C458.334 206.659 458.387 234.137 461.16 254.776C463.84 274.697 468.634 284.465 475.42 291.25C482.204 298.034 491.97 302.829 511.894 305.507C532.534 308.282 560.01 308.335 600 308.335H667.317C657.434 298.75 644.774 287.266 628.334 272.469L496.374 153.706C480.194 139.144 468.154 128.396 458.334 120.317ZM339.184 41.6673C385.337 41.655 415.154 41.6473 442.597 52.1783C470.04 62.7097 492.107 82.5783 526.244 113.318C527.42 114.38 528.614 115.454 529.824 116.541L661.78 235.304C663.187 236.568 664.574 237.817 665.944 239.05C705.4 274.538 730.914 297.486 744.637 328.301C758.36 359.113 758.35 393.43 758.334 446.497C758.334 448.34 758.334 450.207 758.334 452.097V468.55C758.334 529.807 758.334 578.33 753.23 616.303C747.974 655.383 736.904 687.013 711.96 711.96C687.014 736.907 655.38 747.977 616.3 753.23C578.327 758.337 529.807 758.337 468.547 758.337H331.453C270.195 758.337 221.673 758.337 183.7 753.23C144.619 747.977 112.987 736.907 88.0417 711.96C63.0963 687.013 52.0257 655.383 46.7717 616.303C41.666 578.33 41.6663 529.807 41.667 468.55V331.454C41.6663 270.196 41.666 221.675 46.7717 183.701C52.0257 144.62 63.0963 112.989 88.0417 88.043C113.007 63.0783 144.744 52.0197 183.963 46.771C222.095 41.6673 270.857 41.6677 332.451 41.6683H334.327C335.964 41.6683 337.584 41.668 339.184 41.6673Z" fill="black"/>
<path fill-rule="evenodd" clip-rule="evenodd" d="M342.11 443.26C355.04 448.107 361.59 462.52 356.74 475.447L306.742 608.78C301.894 621.707 287.483 628.257 274.555 623.41C261.627 618.563 255.077 604.15 259.925 591.223L309.925 457.89C314.773 444.963 329.183 438.413 342.11 443.26ZM251.011 448.99C260.774 458.753 260.774 474.583 251.011 484.347L235.355 500L251.011 515.657C260.774 525.42 260.774 541.25 251.011 551.013C241.248 560.777 225.419 560.777 215.656 551.013L182.322 517.68C172.559 507.917 172.559 492.087 182.322 482.323L215.656 448.99C225.419 439.227 241.248 439.227 251.011 448.99ZM365.657 515.657C375.42 505.893 391.247 505.893 401.01 515.657L434.343 548.99C444.107 558.753 444.107 574.583 434.343 584.347L401.01 617.68C391.247 627.443 375.42 627.443 365.657 617.68C355.893 607.917 355.893 592.087 365.657 582.323L381.31 566.667L365.657 551.013C355.893 541.25 355.893 525.42 365.657 515.657Z" fill="#1C18FF"/>
</svg>
