<svg width="51" height="51" viewBox="0 0 51 51" fill="none" xmlns="http://www.w3.org/2000/svg">
<path d="M31.8797 46.76V38.258M31.8797 38.258H36.2904C38.5497 38.258 40.3812 36.4264 40.3812 34.1671V33.0402C40.3812 31.9965 41.0341 31.0644 42.015 30.7077C43.4091 30.2007 44.0501 28.5921 43.3867 27.2652L40.8299 22.1513C40.5348 21.5612 40.3855 20.9096 40.3688 20.2501C40.1402 11.1737 36.6649 4.25 23.3781 4.25C9.60559 4.25 6.375 15.4572 6.375 21.254C6.375 24.9009 8.40684 31.1464 12.9983 35.1204C14.1008 36.0746 14.8766 37.4013 14.8766 38.8595V46.76M31.8797 38.258H29.7543M23.375 14.875V12.75M23.375 14.875C21.6118 14.875 20.0158 15.5908 18.8617 16.7477M23.375 14.875C25.1382 14.875 26.7342 15.5908 27.8883 16.7477M23.375 27.625V29.75M23.375 27.625C25.1354 27.625 26.7292 26.9115 27.8828 25.7578M23.375 27.625C21.6146 27.625 20.0208 26.9115 18.8672 25.7578M29.75 21.25H31.875M29.75 21.25C29.75 23.0104 29.0365 24.6042 27.8828 25.7578M29.75 21.25C29.75 19.4924 29.0387 17.9009 27.8883 16.7477M17 21.25H14.875M17 21.25C17 19.4924 17.7113 17.9009 18.8617 16.7477M17 21.25C17 23.0104 17.7135 24.6042 18.8672 25.7578M18.8617 16.7477L17 14.8859M27.8828 25.7578L29.75 27.625M18.8672 25.7578L17 27.625M27.8883 16.7477L29.75 14.8859M23.375 21.25H23.3963" stroke="white" stroke-width="2" stroke-linecap="round" stroke-linejoin="round"/>
</svg>
