<svg width="39" height="36" viewBox="0 0 39 36" fill="none" xmlns="http://www.w3.org/2000/svg">
<path d="M24.2682 29.5494L22.7656 31.052C17.7864 36.0312 9.71357 36.0312 4.73439 31.052C-0.244796 26.0729 -0.244796 18 4.73439 13.0208L9.24219 8.51301M28.776 25.0416L33.2838 20.5338M13.75 4.0052L16.7552 1M18.2578 11.5182L19.7604 10.0156M24.2682 5.50781L28.776 1M24.2682 17.5286L37.7916 4.0052M10.7448 19.0312C12.4045 17.3715 15.0955 17.3715 16.7552 19.0312C18.4149 20.6909 18.4149 23.3819 16.7552 25.0416C15.0955 26.7013 12.4045 26.7013 10.7448 25.0416C9.08507 23.3819 9.08507 20.6909 10.7448 19.0312Z" stroke="#FAFAFA" stroke-width="2" stroke-linecap="round" stroke-linejoin="round"/>
</svg>
