<svg width="800" height="474" viewBox="0 0 800 474" fill="none" xmlns="http://www.w3.org/2000/svg">
<path d="M593.151 84.8867L551.996 134.02L627.863 217.306L645.271 196.524H800.001V84.8867H593.151Z" fill="#11D746"/>
<path d="M410.812 302.593H344.585C324.884 267.122 287.047 243.057 243.679 243.057C180.072 243.057 128.324 294.804 128.324 358.412C128.324 422.019 180.074 473.767 243.679 473.767C287.049 473.767 324.886 449.698 344.585 414.23H462.93L507.302 361.249L431.437 277.968L410.812 302.593ZM243.677 399.342C221.108 399.342 202.747 380.979 202.747 358.412C202.747 335.84 221.108 317.482 243.677 317.482C266.247 317.482 284.607 335.84 284.607 358.412C284.607 380.979 266.247 399.342 243.677 399.342Z" fill="#11D746"/>
<path d="M655.143 302.104L433.961 59.3035H215.993C196.22 24.0893 158.531 0.232422 115.355 0.232422C51.7477 0.230561 0 51.9801 0 115.587C0 179.195 51.7496 230.943 115.355 230.943C158.914 230.943 196.904 206.667 216.53 170.941H384.643L605.866 413.79L800 413.6L799.89 301.963L655.143 302.104ZM115.357 156.517C92.7875 156.517 74.4269 138.159 74.4269 115.587C74.4269 93.0199 92.7875 74.6574 115.357 74.6574C137.926 74.6574 156.287 93.0199 156.287 115.587C156.287 138.157 137.924 156.517 115.357 156.517Z" fill="#11D746"/>
</svg>
