<svg width="800" height="800" viewBox="0 0 800 800" fill="none" xmlns="http://www.w3.org/2000/svg">
<path fill-rule="evenodd" clip-rule="evenodd" d="M187.5 224H152L100 171.5L135.5 136.5L170 170.5L240.5 100L276 135.5L187.5 224ZM349.5 150H749.5V200H349.5V150ZM349.5 300H749.5V350H349.5V300ZM749.5 450H349.5V500H749.5V450ZM349.5 600H749.5V650H349.5V600ZM152 374H187.5L276 285.5L240.5 250.5L170 321L135.5 286.5L100 322L152 374ZM187.5 524.5H152L100 472.5L135.5 437L170 471.5L240.5 400.5L276 436L187.5 524.5ZM152 675H187.5L276 586.5L240.5 551L170 622L135.5 587.5L100 622.5L152 675Z" fill="#FF7700"/>
</svg>
