<?xml version="1.0" encoding="iso-8859-1"?>
<!-- Uploaded to: SVG Repo, www.svgrepo.com, Generator: SVG Repo Mixer Tools -->
<svg fill="#000000" height="800px" width="800px" version="1.1" id="Layer_1" xmlns="http://www.w3.org/2000/svg" xmlns:xlink="http://www.w3.org/1999/xlink" 
	 viewBox="0 0 512 512" xml:space="preserve">
<g>
	<g>
		<g>
			<path d="M9.13,231.679c0.355,0.046,0.706,0.069,1.054,0.069c4,0,7.476-2.969,8.007-7.041
				C33.678,105.82,135.913,16.168,256,16.168c65.513,0,126.7,25.922,172.292,72.994c3.105,3.207,8.224,3.289,11.431,0.182
				c3.207-3.107,3.289-8.224,0.182-11.431c-23.615-24.382-51.317-43.55-82.336-56.971C325.452,7.046,291.278,0,256,0
				C193.453,0,133.234,22.801,86.437,64.204c-46.387,41.04-76.318,97.299-84.28,158.415C1.581,227.047,4.703,231.103,9.13,231.679z"
				/>
			<path d="M256,441.937c-4.465,0-8.084,3.62-8.084,8.084c0,4.465,3.62,8.084,8.084,8.084h75.453c4.465,0,8.084-3.62,8.084-8.084
				c0-4.465-3.62-8.084-8.084-8.084H256z"/>
			<path d="M256,495.832C123.756,495.832,16.168,388.244,16.168,256c0-4.465-3.62-8.084-8.084-8.084S0,251.535,0,256
				c0,68.379,26.628,132.667,74.981,181.019C123.333,485.372,187.621,512,256,512c4.465,0,8.084-3.62,8.084-8.084
				C264.084,499.451,260.465,495.832,256,495.832z"/>
			<path d="M459.124,100.17c-2.72-3.54-7.795-4.205-11.336-1.485s-4.205,7.795-1.485,11.336
				c32.403,42.174,49.529,92.653,49.529,145.979c0,120.087-89.652,222.322-208.539,237.809c-4.427,0.577-7.548,4.633-6.972,9.061
				c0.53,4.073,4.005,7.041,8.007,7.041c0.348,0,0.7-0.023,1.054-0.069c61.116-7.961,117.375-37.892,158.415-84.279
				C489.199,378.766,512,318.547,512,256C512,199.08,493.716,145.195,459.124,100.17z"/>
			<path d="M59.284,256c0-4.465-3.62-8.084-8.084-8.084s-8.084,3.62-8.084,8.084c0,91.879,58.536,173.075,145.659,202.049
				c0.846,0.281,1.706,0.415,2.552,0.415c3.387,0,6.543-2.145,7.67-5.535c1.409-4.236-0.883-8.813-5.12-10.222
				C113.373,415.935,59.284,340.904,59.284,256z"/>
			<path d="M439.242,199.411c4.465,0,8.084-3.62,8.084-8.084c0-4.465-3.62-8.084-8.084-8.084h-45.811v-48.505h2.695
				c4.465,0,8.084-3.62,8.084-8.084c0-4.465-3.62-8.084-8.084-8.084h-2.695V94.316c0-4.465-3.62-8.084-8.084-8.084
				c-4.465,0-8.084,3.62-8.084,8.084v24.253h-48.505V70.063h2.695c4.465,0,8.084-3.62,8.084-8.084c0-4.465-3.62-8.084-8.084-8.084
				h-2.695V51.2c0-4.465-3.62-8.084-8.084-8.084c-4.465,0-8.084,3.62-8.084,8.084v2.695H256c-4.465,0-8.084,3.62-8.084,8.084
				c0,4.465,3.62,8.084,8.084,8.084h56.589v48.505H256c-4.465,0-8.084,3.62-8.084,8.084c0,4.465,3.62,8.084,8.084,8.084h56.589
				v48.505H256c-4.465,0-8.084,3.62-8.084,8.084c0,4.465,3.62,8.084,8.084,8.084h56.589v48.505h-48.505v-13.474
				c0-4.465-3.62-8.084-8.084-8.084c-4.465,0-8.084,3.62-8.084,8.084v183.242c0,4.465,3.62,8.084,8.084,8.084
				c4.465,0,8.084-3.62,8.084-8.084v-24.253h113.179v24.253c0,4.465,3.62,8.084,8.084,8.084c4.465,0,8.084-3.62,8.084-8.084v-24.253
				h2.695c4.465,0,8.084-3.62,8.084-8.084c0-4.465-3.62-8.084-8.084-8.084h-2.695v-48.505h45.811c4.465,0,8.084-3.62,8.084-8.084
				c0-4.465-3.62-8.084-8.084-8.084h-45.811v-48.505h48.505v35.032c0,4.465,3.62,8.084,8.084,8.084c4.465,0,8.084-3.62,8.084-8.084
				v-35.032h2.695c4.465,0,8.084-3.62,8.084-8.084c0-4.465-3.62-8.084-8.084-8.084h-2.695v-35.032c0-4.465-3.62-8.084-8.084-8.084
				c-4.465,0-8.084,3.62-8.084,8.084v35.032h-48.505v-48.505H439.242z M264.084,264.084h48.505v48.505h-48.505V264.084z
				 M377.263,377.263H264.084v-48.505h48.505v24.253c0,4.465,3.62,8.084,8.084,8.084c4.465,0,8.084-3.62,8.084-8.084v-24.253h48.505
				V377.263z M377.263,312.589h-48.505v-48.505h48.505V312.589z M377.263,247.916h-48.505v-48.505h48.505V247.916z M377.263,183.242
				h-48.505v-48.505h48.505V183.242z"/>
		</g>
	</g>
</g>
</svg>