<svg width="800" height="800" viewBox="0 0 800 800" fill="none" xmlns="http://www.w3.org/2000/svg">
<g clip-path="url(#clip0_978_89)">
<path d="M739.13 373.913V219.489C739.13 210.037 734.019 201.327 725.769 196.715C717.52 192.11 707.419 192.317 699.37 197.272L426.266 365.334V176.813H426.087C426.087 162.406 414.407 150.726 400 150.726H278.261V202.899H373.913V365.336L100.809 197.272C92.7565 192.317 82.6609 192.106 74.4104 196.715C66.1617 201.326 61.0487 210.037 61.0487 219.489V373.913H0V426.087H61.0504V580.513C61.0504 589.966 66.1617 598.675 74.4122 603.287C78.3722 605.498 82.7565 606.6 87.1374 606.6C91.8835 606.6 96.6243 605.306 100.809 602.729L373.913 434.663V623.188H374.094C374.094 637.595 385.774 649.275 400.181 649.275H521.92V597.101H426.268V434.663L699.372 602.727C703.558 605.303 708.299 606.599 713.043 606.599C717.424 606.599 721.809 605.496 725.769 603.286C734.017 598.675 739.13 589.964 739.13 580.512V426.087H800V373.913H739.13ZM686.956 266.173V373.913H511.878L686.956 266.173ZM113.224 266.173L288.301 373.913H113.224V266.173ZM113.224 533.828V426.087H288.303L113.224 533.828ZM686.956 533.828L511.878 426.087H686.956V533.828Z" fill="#00EEFF"/>
</g>
<defs>
<clipPath id="clip0_978_89">
<rect width="800" height="800" fill="white"/>
</clipPath>
</defs>
</svg>
