<svg width="800" height="800" viewBox="0 0 800 800" fill="none" xmlns="http://www.w3.org/2000/svg">
<path d="M279.334 400L359.667 480.667L520.667 319.332" stroke="#FF00E1" stroke-width="50" stroke-linecap="round" stroke-linejoin="round"/>
<path d="M358.334 81.6641C381.334 61.9974 419.001 61.9974 442.334 81.6641L495.001 126.997C505.001 135.664 523.667 142.664 537.001 142.664H593.667C629.001 142.664 658.001 171.664 658.001 206.997V263.664C658.001 276.664 665.001 295.664 673.667 305.664L719.001 358.329C738.667 381.329 738.667 418.996 719.001 442.329L673.667 494.996C665.001 504.996 658.001 523.662 658.001 536.996V593.662C658.001 628.996 629.001 657.996 593.667 657.996H537.001C524.001 657.996 505.001 664.996 495.001 673.662L442.334 718.996C419.334 738.662 381.667 738.662 358.334 718.996L305.667 673.662C295.667 664.996 277.001 657.996 263.667 657.996H206.001C170.667 657.996 141.667 628.996 141.667 593.662V536.662C141.667 523.662 134.667 504.996 126.334 494.996L81.334 441.996C62.0007 418.996 62.0007 381.662 81.334 358.662L126.334 305.664C134.667 295.664 141.667 276.997 141.667 263.997V206.664C141.667 171.331 170.667 142.331 206.001 142.331H263.667C276.667 142.331 295.667 135.331 305.667 126.664L358.334 81.6641Z" stroke="#FF00E1" stroke-width="50" stroke-linecap="round" stroke-linejoin="round"/>
</svg>
