<svg xmlns="http://www.w3.org/2000/svg" viewBox="0 0 175.13 175.63"><g id="Layer_2" data-name="Layer 2"><g id="Layer_1-2" data-name="Layer 1"><path d="M84.78,175.63H54.22V121.41h-5.5V175.6H36.07v-1.55q0-25.59,0-51.16c0-1.29-.35-1.69-1.61-1.58s-2.47,0-3.88,0v54.28H9.05V99.83H75.77v66.73H63.39V112.38H21.56v52.43h-3.5v-56H66.83v54.24h5.42v-59.7H12.55V172H27V117.91c.53,0,.88-.11,1.24-.11,3.33,0,6.66,0,10,0,1.2,0,1.44.39,1.44,1.5q0,23.7,0,47.42v5.4H45.1V117.87c.58,0,1-.08,1.47-.08,3.24,0,6.49,0,9.73,0,1.14,0,1.47.28,1.47,1.45q0,25.58,0,51.16v1.68H81.23V94.29H3.43v1.77q0,37.88,0,75.74c0,2.5.37,2.12-2.19,2.16H0V90.75H84.78Z"/><path d="M9,85V9.22H75.78V30.59H63.38V21.76H21.57V72.44H72.25V58h-5.4v3.55c0,1.49,0,3,0,4.49,0,.77-.27,1-1,1-1.78,0-3.57,0-5.36,0H30.41c-1.69,0-1.69,0-1.69-1.68V63.49H63.27v-9H75.78V76H18V18.24H66.82v8.85h5.44V12.73H12.56V81.48H81.27V48.93H57.8v8.88H27.13c0-.43-.08-.86-.08-1.3q0-14,0-27.95c0-.81,0-1.4,1.13-1.4,9.49.05,19,0,28.45,0,.32,0,.65.06,1.12.1v8.93H81.27V3.67H3.48V83.5H0V.13H84.84V39.75H54.24V30.8c-.55,0-1-.07-1.36-.07-7,0-14,0-21,0-.76,0-1.34,0-1.34,1.07,0,7.23,0,14.47,0,21.71a6.6,6.6,0,0,0,.09.79H54.19V45.4H84.83V85Z"/><path d="M166.1,76H153.58V69.9c0-3,0-3-3-3H135.55V54.36h17.93V21.75H111.89V54.36h17.92V67h-18v7.24h-3.47V63.54h18c0-1.8,0-3.44,0-5.08,0-.2-.73-.53-1.12-.54-5.07,0-10.14,0-15.22,0h-1.57V18.23H157V57.84h-18v5.45h18v9.16h5.51V12.74h-59.7V81.47h14.39V72.64H148v8.8h23.59V3.66H93.73V83.25H90.14V81.91q0-40.24,0-80.49C90.11.36,90.35,0,91.49,0Q132.73,0,174,0c.36,0,.73,0,1.17.07V85H144.54V76.14H120.85V85H99.34V9.22H166.1Z"/><path d="M166.13,99.8v57.75c-.5,0-.94.07-1.38.07q-23,0-46,0c-1.06,0-1.45-.23-1.43-1.37.08-3.28.07-6.57,0-9.86,0-1.13.29-1.47,1.46-1.47,11,0,22,0,33.06,0h1.68V112.34H111.86v52.49h-3.5V108.78h48.69V148.5h-1.51c-11.06,0-22.12,0-33.19,0-1.18,0-1.64.28-1.52,1.51a25,25,0,0,1,0,3.12c0,.65.15,1,.9,1q20.21,0,40.42,0a2.17,2.17,0,0,0,.42-.12V103.36H102.86v68.69h14.42v-8.9H171.6V94.27H93.74v79.58H90.23V90.73h84.9v75.89H120.87v9H99.32V99.8Z"/><path d="M147.92,139.4H117.39c0-.42-.08-.78-.08-1.15,0-6.4,0-12.8,0-19.2,0-.84.13-1.27,1.14-1.27,9.56,0,19.11,0,28.67,0,.24,0,.49,0,.82.06Zm-3.48-17.92a4.06,4.06,0,0,0-.59-.11q-11,0-22.07,0c-.94,0-.94.52-.94,1.2,0,4,0,7.89,0,11.84v1.46h23.59Z"/><path d="M117.38,48.78c0-.48-.07-.89-.07-1.29,0-6.28,0-12.55,0-18.83,0-1.09.22-1.51,1.42-1.5,9.31.05,18.62,0,27.93,0,.41,0,.82,0,1.3.06V48.78Zm3.54-3.51H144.4V30.84H120.92Z"/></g></g></svg>