<svg width="800" height="800" viewBox="0 0 800 800" fill="none" xmlns="http://www.w3.org/2000/svg">
<g clip-path="url(#clip0_978_68)">
<path d="M800 325V775C800 781.63 797.366 787.989 792.678 792.678C787.989 797.366 781.63 800 775 800H425C418.37 800 412.011 797.366 407.322 792.678C402.634 787.989 400 781.63 400 775V725C400 718.37 402.634 712.011 407.322 707.322C412.011 702.634 418.37 700 425 700C431.63 700 437.989 702.634 442.678 707.322C447.366 712.011 450 718.37 450 725V750H750V350H675C668.37 350 662.011 347.366 657.322 342.678C652.634 337.989 650 331.63 650 325C650 318.37 652.634 312.011 657.322 307.322C662.011 302.634 668.37 300 675 300H775C781.63 300 787.989 302.634 792.678 307.322C797.366 312.011 800 318.37 800 325ZM675 650C681.63 650 687.989 647.366 692.678 642.678C697.366 637.989 700 631.63 700 625C700 618.37 697.366 612.011 692.678 607.322C687.989 602.634 681.63 600 675 600H600V550H675C681.63 550 687.989 547.366 692.678 542.678C697.366 537.989 700 531.63 700 525C700 518.37 697.366 512.011 692.678 507.322C687.989 502.634 681.63 500 675 500H600V450H675C681.63 450 687.989 447.366 692.678 442.678C697.366 437.989 700 431.63 700 425C700 418.37 697.366 412.011 692.678 407.322C687.989 402.634 681.63 400 675 400H600V175C600 168.37 597.366 162.011 592.678 157.322C587.989 152.634 581.63 150 575 150H475C468.37 150 462.011 152.634 457.322 157.322C452.634 162.011 450 168.37 450 175C450 181.63 452.634 187.989 457.322 192.678C462.011 197.366 468.37 200 475 200H550V600H250V575C250 568.37 247.366 562.011 242.678 557.322C237.989 552.634 231.63 550 225 550C218.37 550 212.011 552.634 207.322 557.322C202.634 562.011 200 568.37 200 575V625C200 631.63 202.634 637.989 207.322 642.678C212.011 647.366 218.37 650 225 650H675ZM375 500H25C18.3696 500 12.0107 497.366 7.32231 492.678C2.6339 487.989 0 481.63 0 475V25C0 18.3696 2.6339 12.0107 7.32231 7.32233C12.0107 2.63392 18.3696 0 25 0L375 0C381.63 0 387.989 2.63392 392.678 7.32233C397.366 12.0107 400 18.3696 400 25V250H475C481.63 250 487.989 252.634 492.678 257.322C497.366 262.011 500 268.37 500 275C500 281.63 497.366 287.989 492.678 292.678C487.989 297.366 481.63 300 475 300H400V350H475C481.63 350 487.989 352.634 492.678 357.322C497.366 362.011 500 368.37 500 375C500 381.63 497.366 387.989 492.678 392.678C487.989 397.366 481.63 400 475 400H400V450H475C481.63 450 487.989 452.634 492.678 457.322C497.366 462.011 500 468.37 500 475C500 481.63 497.366 487.989 492.678 492.678C487.989 497.366 481.63 500 475 500H375ZM50 450H350V50H50V450ZM275 300H125C118.37 300 112.011 302.634 107.322 307.322C102.634 312.011 100 318.37 100 325C100 331.63 102.634 337.989 107.322 342.678C112.011 347.366 118.37 350 125 350H275C281.63 350 287.989 347.366 292.678 342.678C297.366 337.989 300 331.63 300 325C300 318.37 297.366 312.011 292.678 307.322C287.989 302.634 281.63 300 275 300ZM275 200H125C118.37 200 112.011 202.634 107.322 207.322C102.634 212.011 100 218.37 100 225C100 231.63 102.634 237.989 107.322 242.678C112.011 247.366 118.37 250 125 250H275C281.63 250 287.989 247.366 292.678 242.678C297.366 237.989 300 231.63 300 225C300 218.37 297.366 212.011 292.678 207.322C287.989 202.634 281.63 200 275 200ZM275 100H125C118.37 100 112.011 102.634 107.322 107.322C102.634 112.011 100 118.37 100 125C100 131.63 102.634 137.989 107.322 142.678C112.011 147.366 118.37 150 125 150H275C281.63 150 287.989 147.366 292.678 142.678C297.366 137.989 300 131.63 300 125C300 118.37 297.366 112.011 292.678 107.322C287.989 102.634 281.63 100 275 100Z" fill="#1500FF"/>
</g>
<defs>
<clipPath id="clip0_978_68">
<rect width="800" height="800" fill="white"/>
</clipPath>
</defs>
</svg>
