<svg width="53" height="35" viewBox="0 0 53 35" fill="none" xmlns="http://www.w3.org/2000/svg">
<path d="M2.5113 34.7762C1.80379 34.7762 1.09925 34.7762 0.394707 34.7762C0.0528407 34.7762 -0.0482328 34.7225 0.0201404 34.3527C0.507671 31.6687 0.974393 28.9847 1.44706 26.3006C2.20214 22.0121 2.9592 17.7236 3.71824 13.4351C4.46341 9.20825 5.21056 4.98039 5.95969 0.751531C5.98645 0.602418 6.0132 0.453305 6.03401 0.298227C6.06374 0.0835035 6.17076 0 6.40263 0C7.92171 0 9.44078 0 10.9599 0C11.2928 0 11.2334 0.161042 11.1947 0.378748C10.5883 3.78251 9.98777 7.19124 9.39322 10.6049C8.60049 15.0604 7.80775 19.515 7.01502 23.9685C6.39669 27.4538 5.78331 30.942 5.17489 34.4333C5.12732 34.7046 5.01436 34.7881 4.75276 34.7822C4.01552 34.7673 3.26936 34.7762 2.5113 34.7762Z" fill="#2E7CFD"/>
<path d="M43.6405 34.7578C42.9004 34.7578 42.1484 34.7578 41.4203 34.7578C41.1935 34.7578 41.0592 34.7578 41.1218 34.4389C41.8977 30.0938 42.6647 25.7468 43.4226 21.3977C44.1806 17.0984 44.9396 12.797 45.6996 8.49365C46.1711 5.81151 46.6485 3.12937 47.1111 0.447226C47.1678 0.119409 47.2812 -0.00575795 47.6393 0.000202361C49.0538 0.0240436 50.4712 0.0210635 51.8887 0.000202361C52.2647 0.000202361 52.3871 0.0449047 52.3095 0.482988C51.1994 6.6678 50.1052 12.8546 49.0269 19.0434C48.1297 24.1156 47.2344 29.1869 46.3412 34.2571C46.2695 34.6684 46.1233 34.8084 45.6936 34.7786C44.9983 34.725 44.3179 34.7578 43.6405 34.7578Z" fill="#2E7CFD"/>
<path d="M15.8583 17.3847H13.8119C13.2298 17.3847 13.2298 17.3847 13.3318 16.8242L14.5321 10.119C15.1052 6.89011 15.7053 3.65826 16.2604 0.426407C16.3174 0.0954705 16.4224 -0.00291606 16.7555 6.53551e-05C18.1958 0.0179538 19.6361 0.0209352 21.0763 6.53551e-05C21.4754 6.53551e-05 21.5444 0.131248 21.4814 0.480073C20.9433 3.46148 20.4112 6.43495 19.8851 9.40046C19.432 11.9376 18.9699 14.4689 18.5289 17.012C18.4778 17.3101 18.3818 17.3996 18.0878 17.3906C17.3436 17.3727 16.6055 17.3847 15.8583 17.3847Z" fill="#2E7CFD"/>
<path d="M26.1054 17.3795C25.3476 17.3795 24.5898 17.3795 23.832 17.3795C23.5924 17.3795 23.5325 17.3318 23.5655 17.0666C24.3442 12.7368 25.117 8.40714 25.8837 4.07744C26.1054 2.84648 26.342 1.60361 26.5487 0.36967C26.5966 0.0716175 26.7074 -0.00289556 26.9949 8.49652e-05C28.4626 0.0139941 29.9312 0.0139941 31.4009 8.49652e-05C31.7273 8.49652e-05 31.8232 0.0716175 31.7603 0.417358C30.7719 5.90748 29.7934 11.3996 28.825 16.8937C28.7621 17.2484 28.6573 17.4153 28.2469 17.3885C27.5371 17.3497 26.8242 17.3795 26.1054 17.3795Z" fill="#2E7CFD"/>
<path d="M33.3845 34.7588C32.6264 34.7588 31.8683 34.7588 31.1132 34.7588C30.8705 34.7588 30.7956 34.7141 30.8435 34.4608C31.6226 30.1319 32.3957 25.8029 33.1628 21.4739C33.3845 20.2372 33.6152 19.0005 33.819 17.7608C33.8669 17.4628 33.9778 17.3883 34.2654 17.3913C35.7357 17.4072 37.2049 17.4072 38.6731 17.3913C39.0027 17.3913 39.0956 17.4628 39.0327 17.8115C38.0339 23.3007 37.0551 28.7909 36.0962 34.282C36.0333 34.6396 35.9314 34.8065 35.5179 34.7797C34.8108 34.729 34.0976 34.7588 33.3845 34.7588Z" fill="#2E7CFD"/>
<path d="M37.4968 11.5377C36.7633 11.5377 36.012 11.5229 35.2904 11.5377C34.9548 11.5377 34.9073 11.4136 34.9578 11.1329C35.3082 9.18881 35.6546 7.24468 35.9971 5.30055C36.2941 3.65484 36.5911 2.00913 36.8643 0.360461C36.9148 0.0650012 37.0336 0 37.3097 0C38.7649 0 40.22 0.0206822 41.6782 0C42.0612 0 42.0909 0.115229 42.0315 0.437281C41.5208 3.27961 41.0219 6.12193 40.517 8.96426C40.3863 9.697 40.22 10.4416 40.1339 11.1654C40.0894 11.4875 39.9528 11.5495 39.6588 11.5407C38.955 11.5259 38.2185 11.5377 37.4968 11.5377Z" fill="#2E7CFD"/>
<path d="M12.7895 34.7754C12.0532 34.7754 11.3051 34.7754 10.5837 34.7754C10.3135 34.7754 10.2482 34.7096 10.2868 34.4282C10.9379 30.7962 11.5743 27.1591 12.1957 23.5171C12.2462 23.2178 12.3442 23.0771 12.6915 23.0831C14.1314 23.107 15.5742 23.104 17.0141 23.0831C17.3792 23.0831 17.4326 23.1669 17.3673 23.5261C16.73 27.1342 16.1046 30.7433 15.4911 34.3533C15.4376 34.6527 15.3367 34.7964 14.9923 34.7814C14.2739 34.7545 13.5287 34.7754 12.7895 34.7754Z" fill="#2E7CFD"/>
<path d="M25.1452 23.0852C25.8382 23.0852 26.5283 23.1092 27.2272 23.0852C27.6288 23.0643 27.715 23.181 27.6466 23.564C27.251 25.7455 26.8733 27.9269 26.4926 30.1083C26.2427 31.5297 25.9869 32.9541 25.752 34.3814C25.7044 34.6807 25.6092 34.7854 25.2909 34.7824C23.8335 34.7645 22.3761 34.7645 20.9186 34.7824C20.5617 34.7824 20.5171 34.6657 20.5736 34.3485C21.2161 30.7118 21.8506 27.0761 22.4772 23.4413C22.5248 23.166 22.6408 23.0882 22.8995 23.0912C23.6431 23.0912 24.3956 23.0852 25.1452 23.0852Z" fill="#2E7CFD"/>
</svg>
