<svg width="800" height="800" viewBox="0 0 800 800" fill="none" xmlns="http://www.w3.org/2000/svg">
<g clip-path="url(#clip0_1121_51)">
<path d="M300.833 620.437H317.65V663.522C317.65 670.447 323.263 676.061 330.189 676.061C337.116 676.061 342.729 670.447 342.729 663.522V620.437H362.233V663.522C362.233 670.447 367.846 676.061 374.772 676.061C381.699 676.061 387.311 670.447 387.311 663.522V620.437H406.814V663.522C406.814 670.447 412.427 676.061 419.353 676.061C426.28 676.061 431.893 670.447 431.893 663.522V620.437H451.397V663.522C451.397 670.447 457.01 676.061 463.936 676.061C470.863 676.061 476.475 670.447 476.475 663.522V620.437H491.424C498.35 620.437 503.963 614.823 503.963 607.898V576.378H534.893C555.633 576.378 572.508 559.505 572.508 538.763V504.897H604.029C610.955 504.897 616.568 499.283 616.568 492.358V477.945H662.057C668.983 477.945 674.596 472.331 674.596 465.406C674.596 458.481 668.983 452.867 662.057 452.867H616.568V433.362H662.057C668.983 433.362 674.596 427.748 674.596 420.823C674.596 413.898 668.983 408.284 662.057 408.284H616.568V388.781H662.057C668.983 388.781 674.596 383.167 674.596 376.242C674.596 369.317 668.983 363.703 662.057 363.703H616.568V344.198H662.057C668.983 344.198 674.596 338.584 674.596 331.659C674.596 324.734 668.983 319.12 662.057 319.12H616.568V301.769C616.568 294.844 610.955 289.23 604.029 289.23H572.508V261.239C572.508 240.497 555.633 223.623 534.893 223.623H503.963V189.166C503.963 182.241 498.35 176.627 491.424 176.627H476.475V133.539C476.475 126.614 470.863 121 463.936 121C457.01 121 451.397 126.614 451.397 133.539V176.623H431.893V133.539C431.893 126.614 426.28 121 419.353 121C412.427 121 406.814 126.614 406.814 133.539V176.623H387.311V133.539C387.311 126.614 381.699 121 374.772 121C367.846 121 362.233 126.614 362.233 133.539V176.623H342.729V133.539C342.729 126.614 337.116 121 330.189 121C323.263 121 317.65 126.614 317.65 133.539V176.623H300.833C293.907 176.623 288.294 182.238 288.294 189.163V223.62H257.364C236.624 223.62 219.747 240.494 219.747 261.236V289.227H188.227C181.3 289.227 175.688 294.841 175.688 301.766V319.117H132.072C125.146 319.117 119.533 324.731 119.533 331.656C119.533 338.581 125.146 344.195 132.072 344.195H175.693V363.7H132.072C125.146 363.7 119.533 369.314 119.533 376.239C119.533 383.164 125.146 388.778 132.072 388.778H175.693V408.281H132.072C125.146 408.281 119.533 413.895 119.533 420.82C119.533 427.745 125.146 433.359 132.072 433.359H175.693V452.864H132.072C125.146 452.864 119.533 458.478 119.533 465.403C119.533 472.328 125.146 477.942 132.072 477.942H175.693V492.355C175.693 499.28 181.305 504.894 188.232 504.894H219.752V538.763C219.752 559.505 236.627 576.378 257.368 576.378H288.297V607.898C288.294 614.823 293.907 620.437 300.833 620.437ZM219.75 479.817H200.768V314.306H219.75V479.817ZM478.885 595.361H313.372V576.38H478.885V595.361ZM478.885 201.703V220.683H313.372V201.703H478.885ZM257.366 551.302C250.452 551.302 244.827 545.678 244.827 538.763V492.356V301.767V261.239C244.827 254.325 250.45 248.7 257.366 248.7H534.891C541.805 248.7 547.43 254.323 547.43 261.239V301.767V340.219C547.43 347.144 553.043 352.758 559.969 352.758C566.896 352.758 572.508 347.144 572.508 340.219V314.305H591.491V479.817H572.508V380.344C572.508 373.419 566.896 367.805 559.969 367.805C553.043 367.805 547.43 373.419 547.43 380.344V492.356V538.763C547.43 545.677 541.807 551.302 534.891 551.302H491.424H300.833H257.366Z" fill="#00B7FF"/>
<path d="M522.353 513.687V286.316C522.353 279.391 516.74 273.777 509.814 273.777H282.443C275.517 273.777 269.904 279.391 269.904 286.316V513.687C269.904 520.612 275.517 526.226 282.443 526.226H509.814C516.74 526.226 522.353 520.612 522.353 513.687ZM497.275 501.148H294.982V298.855H497.275V501.148Z" fill="#00B7FF"/>
<path d="M119.998 81.118C119.998 60.6836 103.375 44.0586 82.9402 44.0586C62.5059 44.0586 45.8809 60.6836 45.8809 81.118C45.8809 101.552 62.5059 118.176 82.9402 118.176C103.375 118.176 119.998 101.552 119.998 81.118ZM82.9402 93.0992C76.3324 93.0992 70.9574 87.7242 70.9574 81.1195C70.9574 74.5117 76.3324 69.1367 82.9402 69.1367C89.5449 69.1367 94.9199 74.5117 94.9199 81.1195C94.9215 87.7242 89.5465 93.0992 82.9402 93.0992Z" fill="#00B7FF"/>
<path d="M718.882 118.176C739.316 118.176 755.939 101.551 755.939 81.118C755.939 60.6836 739.316 44.0586 718.882 44.0586C698.447 44.0586 681.822 60.6836 681.822 81.118C681.822 101.552 698.447 118.176 718.882 118.176ZM718.882 69.1367C725.486 69.1367 730.861 74.5117 730.861 81.1195C730.861 87.7273 725.486 93.0992 718.882 93.0992C712.274 93.0992 706.899 87.7242 706.899 81.1195C706.9 74.5117 712.275 69.1367 718.882 69.1367Z" fill="#00B7FF"/>
<path d="M718.882 756.713C739.316 756.713 755.939 740.088 755.939 719.653C755.939 699.219 739.316 682.594 718.882 682.594C698.447 682.594 681.822 699.219 681.822 719.653C681.822 740.088 698.447 756.713 718.882 756.713ZM718.882 707.673C725.486 707.673 730.861 713.048 730.861 719.656C730.861 726.264 725.486 731.639 718.882 731.639C712.274 731.639 706.899 726.264 706.899 719.656C706.9 713.045 712.275 707.673 718.882 707.673Z" fill="#00B7FF"/>
<path d="M724.107 0H604.029C597.102 0 591.489 5.61406 591.489 12.5391V42.1109C591.489 46.2594 588.116 49.6344 583.966 49.6344H252.35C248.202 49.6344 244.827 46.2594 244.827 42.1109V12.5391C244.827 5.61406 239.214 0 232.288 0H75.8926C34.0473 0 0.00195312 34.0453 0.00195312 75.8937V724.108C0.00195312 765.955 34.0473 800 75.8926 800H232.288C239.214 800 244.827 794.386 244.827 787.461V757.889C244.827 753.741 248.202 750.366 252.35 750.366H288.336C295.263 750.366 300.875 744.752 300.875 737.827C300.875 730.902 295.263 725.287 288.336 725.287H252.35C234.375 725.287 219.749 739.913 219.749 757.889V774.922H75.8926C47.8723 774.922 25.0785 752.127 25.0785 724.106V75.8937C25.0785 47.8734 47.8738 25.0781 75.8926 25.0781H219.749V42.1109C219.749 60.0859 234.374 74.7125 252.35 74.7125H583.964C601.939 74.7125 616.566 60.0875 616.566 42.1109V25.0781H724.105C752.125 25.0781 774.921 47.8734 774.921 75.8937V248.7H743.4C736.474 248.7 730.861 254.314 730.861 261.239V538.764C730.861 545.689 736.474 551.303 743.4 551.303H774.921V724.108C774.921 752.128 752.125 774.923 724.105 774.923H616.566V757.891C616.566 739.916 601.941 725.289 583.964 725.289H330.135C323.208 725.289 317.596 730.903 317.596 737.828C317.596 744.753 323.208 750.367 330.135 750.367H583.968C588.118 750.367 591.491 753.742 591.491 757.891V787.463C591.491 794.388 597.104 800.002 604.03 800.002H724.108C765.955 800.002 800.002 765.956 800.002 724.108V538.764V261.238V75.8937C799.997 34.0453 765.952 0 724.107 0ZM774.921 526.225H755.941V273.777H774.921V526.225Z" fill="#00B7FF"/>
<path d="M329.232 344.23H464.889C471.815 344.23 477.428 338.616 477.428 331.691C477.428 324.766 471.815 319.152 464.889 319.152H329.232C322.306 319.152 316.693 324.766 316.693 331.691C316.693 338.616 322.307 344.23 329.232 344.23Z" fill="#00B7FF"/>
<path d="M329.232 481.029H464.889C471.815 481.029 477.428 475.415 477.428 468.49C477.428 461.565 471.815 455.951 464.889 455.951H329.232C322.306 455.951 316.693 461.565 316.693 468.49C316.693 475.415 322.307 481.029 329.232 481.029Z" fill="#00B7FF"/>
<path d="M329.232 435.43H464.889C471.815 435.43 477.428 429.816 477.428 422.891C477.428 415.966 471.815 410.352 464.889 410.352H329.232C322.306 410.352 316.693 415.966 316.693 422.891C316.693 429.817 322.307 435.43 329.232 435.43Z" fill="#00B7FF"/>
<path d="M329.232 389.832H464.889C471.815 389.832 477.428 384.218 477.428 377.293C477.428 370.368 471.815 364.754 464.889 364.754H329.232C322.306 364.754 316.693 370.368 316.693 377.293C316.693 384.218 322.307 389.832 329.232 389.832Z" fill="#00B7FF"/>
<path d="M76.0508 536.199H76.0164C69.0898 536.199 63.4961 541.813 63.4961 548.738C63.4961 555.663 69.1273 561.277 76.0539 561.277C82.9805 561.277 88.593 555.663 88.593 548.738C88.593 541.813 82.9773 536.199 76.0508 536.199Z" fill="#00B7FF"/>
<path d="M76.0508 672.998H76.0164C69.0898 672.998 63.4961 678.612 63.4961 685.537C63.4961 692.462 69.1273 698.076 76.0539 698.076C82.9805 698.076 88.593 692.462 88.593 685.537C88.5883 678.612 82.9773 672.998 76.0508 672.998Z" fill="#00B7FF"/>
<path d="M76.0508 627.4H76.0164C69.0898 627.4 63.4961 633.014 63.4961 639.939C63.4961 646.864 69.1273 652.478 76.0539 652.478C82.9805 652.478 88.593 646.864 88.593 639.939C88.5883 633.014 82.9773 627.4 76.0508 627.4Z" fill="#00B7FF"/>
<path d="M76.0508 581.801H76.0164C69.0898 581.801 63.4961 587.415 63.4961 594.34C63.4961 601.265 69.1273 606.879 76.0539 606.879C82.9805 606.879 88.593 601.265 88.593 594.34C88.5914 587.415 82.9773 581.801 76.0508 581.801Z" fill="#00B7FF"/>
<path d="M76.0508 143.855H76.0164C69.0898 143.855 63.4961 149.47 63.4961 156.395C63.4961 163.32 69.1273 168.934 76.0539 168.934C82.9805 168.934 88.593 163.32 88.593 156.395C88.5914 149.47 82.9773 143.855 76.0508 143.855Z" fill="#00B7FF"/>
<path d="M76.0508 280.652H76.0164C69.0898 280.652 63.4961 286.266 63.4961 293.191C63.4961 300.116 69.1273 305.73 76.0539 305.73C82.9805 305.73 88.593 300.116 88.593 293.191C88.5883 286.266 82.9773 280.652 76.0508 280.652Z" fill="#00B7FF"/>
<path d="M76.0508 235.053H76.0164C69.0898 235.053 63.4961 240.667 63.4961 247.592C63.4961 254.517 69.1273 260.131 76.0539 260.131C82.9805 260.131 88.593 254.517 88.593 247.592C88.5883 240.667 82.9773 235.053 76.0508 235.053Z" fill="#00B7FF"/>
<path d="M76.0508 189.455H76.0164C69.0898 189.455 63.4961 195.069 63.4961 201.994C63.4961 208.919 69.1273 214.533 76.0539 214.533C82.9805 214.533 88.593 208.919 88.593 201.994C88.5883 195.069 82.9773 189.455 76.0508 189.455Z" fill="#00B7FF"/>
<path d="M124.92 741.48C131.846 741.48 137.459 735.847 137.459 728.922C137.459 721.997 131.846 716.383 124.92 716.383C117.995 716.383 112.381 721.997 112.381 728.922V728.956C112.381 735.883 117.995 741.48 124.92 741.48Z" fill="#00B7FF"/>
<path d="M157.98 728.921V728.955C157.98 735.88 163.593 741.476 170.52 741.476C177.446 741.476 183.059 735.843 183.059 728.918C183.059 721.993 177.446 716.379 170.52 716.379C163.593 716.382 157.98 721.996 157.98 728.921Z" fill="#00B7FF"/>
</g>
<defs>
<clipPath id="clip0_1121_51">
<rect width="800" height="800" fill="white"/>
</clipPath>
</defs>
</svg>
