<svg width="800" height="800" viewBox="0 0 800 800" fill="none" xmlns="http://www.w3.org/2000/svg">
<g clip-path="url(#clip0_978_44)">
<path d="M300.833 620.437H317.65V663.522C317.65 670.447 323.263 676.061 330.189 676.061C337.116 676.061 342.729 670.447 342.729 663.522V620.437H362.233V663.522C362.233 670.447 367.846 676.061 374.772 676.061C381.699 676.061 387.311 670.447 387.311 663.522V620.437H406.814V663.522C406.814 670.447 412.427 676.061 419.353 676.061C426.28 676.061 431.893 670.447 431.893 663.522V620.437H451.397V663.522C451.397 670.447 457.01 676.061 463.936 676.061C470.863 676.061 476.475 670.447 476.475 663.522V620.437H491.424C498.35 620.437 503.963 614.823 503.963 607.898V576.378H534.893C555.633 576.378 572.508 559.505 572.508 538.763V504.897H604.029C610.955 504.897 616.568 499.283 616.568 492.358V477.945H662.057C668.983 477.945 674.596 472.331 674.596 465.406C674.596 458.481 668.983 452.867 662.057 452.867H616.568V433.362H662.057C668.983 433.362 674.596 427.748 674.596 420.823C674.596 413.898 668.983 408.284 662.057 408.284H616.568V388.781H662.057C668.983 388.781 674.596 383.167 674.596 376.242C674.596 369.317 668.983 363.703 662.057 363.703H616.568V344.198H662.057C668.983 344.198 674.596 338.584 674.596 331.659C674.596 324.734 668.983 319.12 662.057 319.12H616.568V301.769C616.568 294.844 610.955 289.23 604.029 289.23H572.508V261.239C572.508 240.497 555.633 223.623 534.893 223.623H503.963V189.166C503.963 182.241 498.35 176.627 491.424 176.627H476.475V133.539C476.475 126.614 470.863 121 463.936 121C457.01 121 451.397 126.614 451.397 133.539V176.623H431.893V133.539C431.893 126.614 426.28 121 419.353 121C412.427 121 406.814 126.614 406.814 133.539V176.623H387.311V133.539C387.311 126.614 381.699 121 374.772 121C367.846 121 362.233 126.614 362.233 133.539V176.623H342.729V133.539C342.729 126.614 337.116 121 330.189 121C323.263 121 317.65 126.614 317.65 133.539V176.623H300.833C293.907 176.623 288.294 182.237 288.294 189.162V223.62H257.364C236.624 223.62 219.747 240.494 219.747 261.236V289.227H188.227C181.3 289.227 175.688 294.841 175.688 301.766V319.117H132.072C125.146 319.117 119.533 324.731 119.533 331.656C119.533 338.581 125.146 344.195 132.072 344.195H175.693V363.7H132.072C125.146 363.7 119.533 369.314 119.533 376.239C119.533 383.164 125.146 388.778 132.072 388.778H175.693V408.281H132.072C125.146 408.281 119.533 413.895 119.533 420.82C119.533 427.745 125.146 433.359 132.072 433.359H175.693V452.864H132.072C125.146 452.864 119.533 458.478 119.533 465.403C119.533 472.328 125.146 477.942 132.072 477.942H175.693V492.355C175.693 499.28 181.305 504.894 188.232 504.894H219.752V538.763C219.752 559.505 236.627 576.378 257.368 576.378H288.297V607.898C288.294 614.823 293.907 620.437 300.833 620.437ZM219.75 479.817H200.768V314.306H219.75V479.817ZM478.885 595.361H313.372V576.38H478.885V595.361ZM478.885 201.703V220.683H313.372V201.703H478.885ZM257.366 551.302C250.452 551.302 244.827 545.678 244.827 538.763V492.356V301.767V261.239C244.827 254.325 250.45 248.7 257.366 248.7H534.891C541.805 248.7 547.43 254.323 547.43 261.239V301.767V340.219C547.43 347.144 553.043 352.758 559.969 352.758C566.896 352.758 572.508 347.144 572.508 340.219V314.305H591.491V479.817H572.508V380.344C572.508 373.419 566.896 367.805 559.969 367.805C553.043 367.805 547.43 373.419 547.43 380.344V492.356V538.763C547.43 545.677 541.807 551.302 534.891 551.302H491.424H300.833H257.366Z" fill="#1C18FF"/>
<path d="M522.352 513.686V286.315C522.352 279.39 516.739 273.776 509.813 273.776H282.442C275.516 273.776 269.903 279.39 269.903 286.315V513.686C269.903 520.611 275.516 526.225 282.442 526.225H509.813C516.739 526.225 522.352 520.611 522.352 513.686ZM497.274 501.147H294.981V298.854H497.274V501.147Z" fill="black"/>
<path d="M119.999 81.117C119.999 60.6826 103.376 44.0576 82.9412 44.0576C62.5068 44.0576 45.8818 60.6826 45.8818 81.117C45.8818 101.551 62.5068 118.175 82.9412 118.175C103.376 118.175 119.999 101.551 119.999 81.117ZM82.9412 93.0982C76.3334 93.0982 70.9584 87.7232 70.9584 81.1186C70.9584 74.5107 76.3334 69.1357 82.9412 69.1357C89.5459 69.1357 94.9209 74.5107 94.9209 81.1186C94.9225 87.7232 89.5475 93.0982 82.9412 93.0982Z" fill="black"/>
<path d="M718.882 118.175C739.316 118.175 755.939 101.55 755.939 81.117C755.939 60.6826 739.316 44.0576 718.882 44.0576C698.447 44.0576 681.822 60.6826 681.822 81.117C681.822 101.551 698.447 118.175 718.882 118.175ZM718.882 69.1357C725.486 69.1357 730.861 74.5107 730.861 81.1186C730.861 87.7264 725.486 93.0982 718.882 93.0982C712.274 93.0982 706.899 87.7232 706.899 81.1186C706.9 74.5107 712.275 69.1357 718.882 69.1357Z" fill="black"/>
<path d="M718.882 756.713C739.316 756.713 755.939 740.088 755.939 719.653C755.939 699.219 739.316 682.594 718.882 682.594C698.447 682.594 681.822 699.219 681.822 719.653C681.822 740.088 698.447 756.713 718.882 756.713ZM718.882 707.673C725.486 707.673 730.861 713.048 730.861 719.656C730.861 726.264 725.486 731.639 718.882 731.639C712.274 731.639 706.899 726.264 706.899 719.656C706.9 713.045 712.275 707.673 718.882 707.673Z" fill="black"/>
<path d="M724.107 0H604.029C597.102 0 591.489 5.61406 591.489 12.5391V42.1109C591.489 46.2594 588.116 49.6344 583.966 49.6344H252.35C248.202 49.6344 244.827 46.2594 244.827 42.1109V12.5391C244.827 5.61406 239.214 0 232.288 0H75.8926C34.0473 0 0.00195312 34.0453 0.00195312 75.8937V724.108C0.00195312 765.955 34.0473 800 75.8926 800H232.288C239.214 800 244.827 794.386 244.827 787.461V757.889C244.827 753.741 248.202 750.366 252.35 750.366H288.336C295.263 750.366 300.875 744.752 300.875 737.827C300.875 730.902 295.263 725.287 288.336 725.287H252.35C234.375 725.287 219.749 739.913 219.749 757.889V774.922H75.8926C47.8723 774.922 25.0785 752.127 25.0785 724.106V75.8937C25.0785 47.8734 47.8738 25.0781 75.8926 25.0781H219.749V42.1109C219.749 60.0859 234.374 74.7125 252.35 74.7125H583.964C601.939 74.7125 616.566 60.0875 616.566 42.1109V25.0781H724.105C752.125 25.0781 774.921 47.8734 774.921 75.8937V248.7H743.4C736.474 248.7 730.861 254.314 730.861 261.239V538.764C730.861 545.689 736.474 551.303 743.4 551.303H774.921V724.108C774.921 752.128 752.125 774.923 724.105 774.923H616.566V757.891C616.566 739.916 601.941 725.289 583.964 725.289H330.135C323.208 725.289 317.596 730.903 317.596 737.828C317.596 744.753 323.208 750.367 330.135 750.367H583.968C588.118 750.367 591.491 753.742 591.491 757.891V787.463C591.491 794.388 597.104 800.002 604.03 800.002H724.108C765.955 800.002 800.002 765.956 800.002 724.108V538.764V261.237V75.8937C799.997 34.0453 765.952 0 724.107 0ZM774.921 526.225H755.941V273.777H774.921V526.225Z" fill="black"/>
<path d="M329.233 344.231H464.89C471.816 344.231 477.429 338.617 477.429 331.692C477.429 324.767 471.816 319.153 464.89 319.153H329.233C322.307 319.153 316.694 324.767 316.694 331.692C316.694 338.617 322.308 344.231 329.233 344.231Z" fill="#1C18FF"/>
<path d="M329.233 481.03H464.89C471.816 481.03 477.429 475.416 477.429 468.491C477.429 461.566 471.816 455.952 464.89 455.952H329.233C322.307 455.952 316.694 461.566 316.694 468.491C316.694 475.416 322.308 481.03 329.233 481.03Z" fill="#1C18FF"/>
<path d="M329.233 435.43H464.89C471.816 435.43 477.429 429.816 477.429 422.891C477.429 415.966 471.816 410.352 464.89 410.352H329.233C322.307 410.352 316.694 415.966 316.694 422.891C316.694 429.817 322.308 435.43 329.233 435.43Z" fill="#1C18FF"/>
<path d="M329.233 389.831H464.89C471.816 389.831 477.429 384.217 477.429 377.292C477.429 370.367 471.816 364.753 464.89 364.753H329.233C322.307 364.753 316.694 370.367 316.694 377.292C316.694 384.217 322.308 389.831 329.233 389.831Z" fill="#1C18FF"/>
<path d="M76.0508 536.2H76.0164C69.0898 536.2 63.4961 541.814 63.4961 548.739C63.4961 555.664 69.1273 561.278 76.0539 561.278C82.9805 561.278 88.593 555.664 88.593 548.739C88.593 541.814 82.9773 536.2 76.0508 536.2Z" fill="black"/>
<path d="M76.0508 672.999H76.0164C69.0898 672.999 63.4961 678.613 63.4961 685.538C63.4961 692.463 69.1273 698.077 76.0539 698.077C82.9805 698.077 88.593 692.463 88.593 685.538C88.5883 678.613 82.9773 672.999 76.0508 672.999Z" fill="black"/>
<path d="M76.0508 627.4H76.0164C69.0898 627.4 63.4961 633.014 63.4961 639.939C63.4961 646.864 69.1273 652.478 76.0539 652.478C82.9805 652.478 88.593 646.864 88.593 639.939C88.5883 633.014 82.9773 627.4 76.0508 627.4Z" fill="black"/>
<path d="M76.0508 581.8H76.0164C69.0898 581.8 63.4961 587.414 63.4961 594.339C63.4961 601.264 69.1273 606.878 76.0539 606.878C82.9805 606.878 88.593 601.264 88.593 594.339C88.5914 587.414 82.9773 581.8 76.0508 581.8Z" fill="black"/>
<path d="M76.0508 143.854H76.0164C69.0898 143.854 63.4961 149.469 63.4961 156.394C63.4961 163.319 69.1273 168.933 76.0539 168.933C82.9805 168.933 88.593 163.319 88.593 156.394C88.5914 149.469 82.9773 143.854 76.0508 143.854Z" fill="black"/>
<path d="M76.0508 280.653H76.0164C69.0898 280.653 63.4961 286.267 63.4961 293.192C63.4961 300.117 69.1273 305.731 76.0539 305.731C82.9805 305.731 88.593 300.117 88.593 293.192C88.5883 286.267 82.9773 280.653 76.0508 280.653Z" fill="black"/>
<path d="M76.0508 235.053H76.0164C69.0898 235.053 63.4961 240.667 63.4961 247.592C63.4961 254.517 69.1273 260.131 76.0539 260.131C82.9805 260.131 88.593 254.517 88.593 247.592C88.5883 240.667 82.9773 235.053 76.0508 235.053Z" fill="black"/>
<path d="M76.0508 189.455H76.0164C69.0898 189.455 63.4961 195.069 63.4961 201.994C63.4961 208.919 69.1273 214.533 76.0539 214.533C82.9805 214.533 88.593 208.919 88.593 201.994C88.5883 195.069 82.9773 189.455 76.0508 189.455Z" fill="black"/>
<path d="M124.919 741.48C131.846 741.48 137.458 735.847 137.458 728.922C137.458 721.997 131.846 716.383 124.919 716.383C117.994 716.383 112.38 721.997 112.38 728.922V728.956C112.38 735.883 117.994 741.48 124.919 741.48Z" fill="black"/>
<path d="M157.98 728.922V728.956C157.98 735.881 163.593 741.477 170.52 741.477C177.446 741.477 183.059 735.844 183.059 728.919C183.059 721.994 177.446 716.38 170.52 716.38C163.593 716.383 157.98 721.997 157.98 728.922Z" fill="black"/>
</g>
<defs>
<clipPath id="clip0_978_44">
<rect width="800" height="800" fill="white"/>
</clipPath>
</defs>
</svg>
