<svg width="32" height="43" viewBox="0 0 32 43" fill="none" xmlns="http://www.w3.org/2000/svg">
<path d="M5.25 26.5V39.7468C5.25 41.3986 7.05194 42.4188 8.4683 41.569L14.7817 37.781C15.4546 37.3772 16.2954 37.3772 16.9683 37.781L23.2817 41.569C24.6981 42.4188 26.5 41.3986 26.5 39.7468V26.5M30.75 15.875C30.75 24.0902 24.0902 30.75 15.875 30.75C7.65976 30.75 1 24.0902 1 15.875C1 7.65976 7.65976 1 15.875 1C24.0902 1 30.75 7.65976 30.75 15.875ZM22.25 15.875C22.25 19.3958 19.3958 22.25 15.875 22.25C12.3542 22.25 9.5 19.3958 9.5 15.875C9.5 12.3542 12.3542 9.5 15.875 9.5C19.3958 9.5 22.25 12.3542 22.25 15.875Z" stroke="white" stroke-width="2" stroke-linecap="round" stroke-linejoin="round"/>
</svg>
