<svg width="12" height="121" viewBox="0 0 12 121" fill="none" xmlns="http://www.w3.org/2000/svg">
<path d="M6 120.333C8.94552 120.333 11.3333 117.946 11.3333 115C11.3333 112.054 8.94552 109.667 6 109.667C3.05448 109.667 0.666667 112.054 0.666667 115C0.666666 117.946 3.05448 120.333 6 120.333ZM6 11.3333C8.94552 11.3333 11.3333 8.94552 11.3333 6C11.3333 3.05448 8.94552 0.666664 6 0.666664C3.05449 0.666664 0.666671 3.05448 0.666671 6C0.666671 8.94552 3.05449 11.3333 6 11.3333ZM7 115L7 113.054L5 113.054L5 115L7 115ZM7 109.161L7 105.268L5 105.268L5 109.161L7 109.161ZM7 101.375L7 97.4821L5 97.4821L5 101.375L7 101.375ZM7 93.5893L7 89.6964L5 89.6964L5 93.5893L7 93.5893ZM7 85.8036L7 81.9107L5 81.9107L5 85.8036L7 85.8036ZM7 78.0179L7 74.125L5 74.125L5 78.0179L7 78.0179ZM7 70.2321L7 66.3393L5 66.3393L5 70.2321L7 70.2321ZM7 62.4464L7 58.5536L5 58.5536L5 62.4464L7 62.4464ZM7 54.6607L7 50.7679L5 50.7679L5 54.6607L7 54.6607ZM7 46.875L7 42.9821L5 42.9821L5 46.875L7 46.875ZM7 39.0893L7 35.1964L5 35.1964L5 39.0893L7 39.0893ZM7 31.3036L7 27.4107L5 27.4107L5 31.3036L7 31.3036ZM7 23.5178L7 19.625L5 19.625L5 23.5178L7 23.5178ZM7 15.7321L7 11.8393L5 11.8393L5 15.7321L7 15.7321ZM7 7.9464L7 6L5 6L5 7.9464L7 7.9464Z" fill="#A0C3FF"/>
</svg>
