<svg width="745" height="569" viewBox="0 0 745 569" fill="none" xmlns="http://www.w3.org/2000/svg">
<path d="M35.7511 568.898C25.6789 568.898 15.649 568.898 5.61908 568.898C0.752244 568.898 -0.686646 568.019 0.286721 561.97C7.22725 518.062 13.8715 474.155 20.6005 430.247C31.3498 360.092 42.1274 289.937 52.9332 219.782C63.5415 150.636 74.1779 81.4732 84.8427 12.2942C85.2235 9.85484 85.6044 7.41553 85.9007 4.87863C86.3239 1.36602 87.8474 0 91.1484 0C112.774 0 134.4 0 156.025 0C160.765 0 159.919 2.63446 159.369 6.19587C150.735 61.8773 142.187 117.64 133.723 173.484C122.437 246.371 111.152 319.242 99.8664 392.096C91.0638 449.111 82.3317 506.175 73.6701 563.287C72.993 567.727 71.3848 569.093 67.6606 568.995C57.1652 568.751 46.5428 568.898 35.7511 568.898Z" fill="#2E7CFD" fill-opacity="0.05"/>
<path d="M621.271 568.596C610.735 568.596 600.03 568.596 589.664 568.596C586.435 568.596 584.523 568.596 585.416 563.379C596.461 492.299 607.379 421.186 618.17 350.041C628.96 279.709 639.765 209.344 650.584 138.946C657.297 95.0693 664.094 51.1927 670.679 7.31608C671.486 1.95338 673.1 -0.0941932 678.198 0.00331038C698.335 0.393325 718.514 0.344574 738.694 0.00331038C744.047 0.00331038 745.788 0.734586 744.684 7.9011C728.88 109.077 713.303 210.286 697.953 311.527C685.18 394.503 672.435 477.462 659.718 560.405C658.699 567.133 656.617 569.424 650.499 568.937C640.601 568.059 630.915 568.596 621.271 568.596Z" fill="#2E7CFD" fill-opacity="0.05"/>
<path d="M225.761 284.393H196.628C188.341 284.393 188.341 284.393 189.793 275.223L206.88 165.534C215.039 112.714 223.582 59.8447 231.485 6.97552C232.296 1.56178 233.791 -0.0477032 238.533 0.00106913C259.037 0.293703 279.541 0.342476 300.045 0.00106913C305.726 0.00106913 306.708 2.14705 305.811 7.85342C298.151 56.6258 290.576 105.268 283.086 153.78C276.636 195.286 270.058 236.693 263.778 278.296C263.052 283.173 261.685 284.637 257.499 284.49C246.905 284.198 236.397 284.393 225.761 284.393Z" fill="#2E7CFD" fill-opacity="0.05"/>
<path d="M371.64 284.308C360.852 284.308 350.064 284.308 339.276 284.308C335.865 284.308 335.012 283.528 335.481 279.189C346.568 208.36 357.569 137.531 368.485 66.7021C371.64 46.5651 375.008 26.2331 377.951 6.04736C378.633 1.17158 380.21 -0.0473679 384.304 0.00138993C405.197 0.228927 426.105 0.228927 447.027 0.00138993C451.674 0.00138993 453.039 1.17158 452.143 6.82748C438.072 96.6394 424.143 186.484 410.357 276.361C409.461 282.163 407.969 284.893 402.127 284.454C392.022 283.821 381.873 284.308 371.64 284.308Z" fill="#2E7CFD" fill-opacity="0.05"/>
<path d="M475.266 568.613C464.474 568.613 453.681 568.613 442.932 568.613C439.477 568.613 438.41 567.882 439.093 563.738C450.184 492.921 461.189 422.105 472.109 351.288C475.266 331.057 478.55 310.826 481.451 290.546C482.134 285.671 483.712 284.453 487.807 284.501C508.737 284.761 529.653 284.761 550.555 284.501C555.248 284.501 556.57 285.671 555.674 291.375C541.455 381.171 527.521 470.984 513.87 560.813C512.975 566.663 511.524 569.393 505.638 568.954C495.571 568.126 485.418 568.613 475.266 568.613Z" fill="#2E7CFD" fill-opacity="0.05"/>
<path d="M533.806 188.743C523.364 188.743 512.668 188.502 502.395 188.743C497.617 188.743 496.941 186.713 497.66 182.122C502.648 150.318 507.581 118.514 512.457 86.7107C516.684 59.7888 520.912 32.8669 524.801 5.89672C525.52 1.06334 527.211 0 531.143 0C551.858 0 572.574 0.338337 593.332 0C598.785 0 599.208 1.88502 598.363 7.15339C591.091 53.6505 583.989 100.148 576.802 146.645C574.941 158.631 572.574 170.811 571.348 182.653C570.714 187.922 568.769 188.937 564.584 188.792C554.564 188.55 544.079 188.743 533.806 188.743Z" fill="#2E7CFD" fill-opacity="0.05"/>
<path d="M182.072 568.885C171.59 568.885 160.94 568.885 150.67 568.885C146.824 568.885 145.894 567.807 146.443 563.204C155.713 503.789 164.772 444.291 173.619 384.712C174.337 379.816 175.732 377.514 180.677 377.612C201.175 378.004 221.715 377.955 242.213 377.612C247.412 377.612 248.172 378.983 247.242 384.859C238.17 443.883 229.266 502.924 220.532 561.98C219.771 566.877 218.334 569.227 213.431 568.983C203.204 568.542 192.595 568.885 182.072 568.885Z" fill="#2E7CFD" fill-opacity="0.05"/>
<path d="M357.969 377.647C367.835 377.647 377.658 378.039 387.609 377.647C393.325 377.305 394.553 379.214 393.579 385.479C387.948 421.165 382.57 456.851 377.15 492.537C373.593 515.789 369.952 539.09 366.607 562.439C365.929 567.335 364.574 569.048 360.044 568.999C339.295 568.705 318.547 568.705 297.799 568.999C292.718 568.999 292.083 567.09 292.887 561.901C302.033 502.408 311.067 442.932 319.987 383.472C320.664 378.969 322.316 377.696 326 377.745C336.585 377.745 347.298 377.647 357.969 377.647Z" fill="#2E7CFD" fill-opacity="0.05"/>
</svg>
