<svg width="800" height="800" viewBox="0 0 800 800" fill="none" xmlns="http://www.w3.org/2000/svg">
<g clip-path="url(#clip0_978_91)">
<path d="M369.495 329.673L437.409 443.807L275.589 540.126L207.672 425.946L369.495 329.673Z" stroke="#20037E" stroke-width="31.4809" stroke-miterlimit="10" stroke-linecap="round" stroke-linejoin="round"/>
<path d="M250.583 198.883L311.623 301.497L245.181 341.016L184.141 238.445L250.583 198.883Z" stroke="#20037E" stroke-width="31.4809" stroke-miterlimit="10" stroke-linecap="round" stroke-linejoin="round"/>
<path d="M434.149 507.396L495.19 610.01L428.746 649.528L367.707 546.96L434.149 507.396Z" stroke="#20037E" stroke-width="31.4809" stroke-miterlimit="10" stroke-linecap="round" stroke-linejoin="round"/>
<path d="M469.382 300.067L510.641 369.414C518.901 383.347 514.302 401.477 500.415 409.781C486.483 418.042 468.354 413.442 460.049 399.511L418.79 330.164C410.53 316.277 415.129 298.102 429.016 289.842C442.947 281.536 461.077 286.18 469.382 300.067Z" stroke="#20037E" stroke-width="31.4809" stroke-miterlimit="10" stroke-linecap="round" stroke-linejoin="round"/>
<path d="M280.59 319.982L308.096 366.2" stroke="#20037E" stroke-width="31.4809" stroke-miterlimit="10" stroke-linecap="round" stroke-linejoin="round"/>
<path d="M376.012 480.38L403.073 525.881" stroke="#20037E" stroke-width="31.4809" stroke-miterlimit="10" stroke-linecap="round" stroke-linejoin="round"/>
<path d="M379.361 753.124C569.403 753.124 724.348 598.132 724.348 408.129C724.348 218.082 569.403 63.1338 379.361 63.1338C189.364 63.1338 34.375 218.082 34.375 408.129C34.375 598.132 189.364 753.124 379.361 753.124Z" stroke="#20037E" stroke-width="31.4809" stroke-miterlimit="10" stroke-linecap="round" stroke-linejoin="round"/>
<path d="M642.634 95.7311C847.053 -20.0564 780.923 136.947 530.734 293.906" stroke="#20037E" stroke-width="31.4809" stroke-miterlimit="10" stroke-linecap="round" stroke-linejoin="round"/>
</g>
<defs>
<clipPath id="clip0_978_91">
<rect width="800" height="800" fill="white"/>
</clipPath>
</defs>
</svg>
