<svg width="668" height="668" viewBox="0 0 668 668" fill="none" xmlns="http://www.w3.org/2000/svg">
<path d="M117.333 200.667C163.357 200.667 200.667 163.357 200.667 117.333C200.667 71.3097 163.357 34 117.333 34C71.3097 34 34 71.3097 34 117.333C34 163.357 71.3097 200.667 117.333 200.667ZM117.333 200.667V467.333M117.333 200.667C117.333 274.303 177.029 334 250.667 334H467.333M117.333 467.333C71.3097 467.333 34 504.643 34 550.667C34 596.69 71.3097 634 117.333 634C163.357 634 200.667 596.69 200.667 550.667C200.667 504.643 163.357 467.333 117.333 467.333ZM467.333 334C467.333 380.023 504.643 417.333 550.667 417.333C596.69 417.333 634 380.023 634 334C634 287.977 596.69 250.667 550.667 250.667C504.643 250.667 467.333 287.977 467.333 334Z" stroke="#FF0000" stroke-width="66.6667" stroke-linecap="round" stroke-linejoin="round"/>
</svg>
