<svg width="800" height="800" viewBox="0 0 800 800" fill="none" xmlns="http://www.w3.org/2000/svg">
<g clip-path="url(#clip0_978_317)">
<path d="M737.5 175C702.975 175 675 203 675 237.5C675 244.6 676.45 251.275 678.6 257.625L526.25 388.8C515.575 380.275 502.225 374.975 487.5 374.975C470.5 374.975 455.15 381.8 443.9 392.8L324.55 333.05C322.225 300.65 295.5 274.975 262.5 274.975C228 274.975 200 302.975 200 337.475C200 346.925 202.25 355.775 206 363.8L84.325 504.1C77.5 501.55 70.225 499.95 62.5 499.95C27.975 499.95 0 527.925 0 562.45C0 596.975 27.975 624.95 62.5 624.95C97.025 624.95 125 596.975 125 562.45C125 554.15 123.3 546.225 120.35 538.975L244 396.85C249.9 398.675 256 399.95 262.5 399.95C280.675 399.95 296.925 392.05 308.35 379.625L425.075 438.15C425.5 472.325 453.25 499.925 487.5 499.925C522.025 499.925 550 471.95 550 437.425C550 436.325 549.725 435.275 549.675 434.175L712.25 294.5C719.975 297.925 728.475 299.9 737.5 299.9C772.025 299.9 800 271.925 800 237.4C800 202.875 772.025 174.9 737.5 174.9V175Z" fill="#00FF55"/>
</g>
<defs>
<clipPath id="clip0_978_317">
<rect width="800" height="800" fill="white"/>
</clipPath>
</defs>
</svg>
