<svg width="800" height="800" viewBox="0 0 800 800" fill="none" xmlns="http://www.w3.org/2000/svg">
<path d="M593.52 357.667C615.909 357.667 634.125 339.452 634.125 317.062V40.6047C634.125 18.2156 615.911 0 593.52 0H455.29C432.901 0 414.687 18.2156 414.687 40.6047V124.447C411.089 124.208 407.411 125.45 404.659 128.202C399.598 133.263 399.598 141.469 404.659 146.527L424.006 165.873H385.312V40.6047C385.312 18.2156 367.098 0 344.707 0H206.478C184.089 0 165.873 18.2156 165.873 40.6047V317.062C165.873 339.452 184.089 357.667 206.478 357.667H262.634V442.333H206.478C184.089 442.333 165.873 460.548 165.873 482.937V759.395C165.873 781.784 184.089 800 206.478 800H344.707C367.096 800 385.312 781.784 385.312 759.395V482.937C385.312 460.548 367.096 442.333 344.707 442.333H288.551V357.667H344.707C367.096 357.667 385.312 339.452 385.312 317.062V191.792H424.004L404.657 211.139C399.596 216.2 399.596 224.406 404.657 229.464C407.189 231.994 410.506 233.261 413.822 233.261C414.111 233.261 414.396 233.239 414.686 233.219V317.061C414.686 339.45 432.901 357.666 455.29 357.666H511.446V442.331H455.29C432.901 442.331 414.686 460.547 414.686 482.936V759.394C414.686 781.783 432.901 799.998 455.29 799.998H593.52C615.909 799.998 634.125 781.783 634.125 759.394V482.937C634.125 460.548 615.909 442.333 593.52 442.333H537.364V357.667H593.52ZM344.707 468.25C352.806 468.25 359.395 474.837 359.395 482.937V759.395C359.395 767.494 352.806 774.083 344.707 774.083H206.478C198.379 774.083 191.79 767.494 191.79 759.395V482.937C191.79 474.839 198.378 468.25 206.478 468.25H262.634V520.764L243.289 501.417C238.226 496.356 230.021 496.356 224.961 501.417C219.9 506.478 219.9 514.684 224.961 519.742L266.429 561.211C266.446 561.228 266.465 561.242 266.481 561.258C266.768 561.541 267.067 561.812 267.379 562.07C267.525 562.189 267.678 562.294 267.826 562.406C268.017 562.548 268.201 562.695 268.4 562.828C268.576 562.945 268.759 563.048 268.94 563.156C269.121 563.266 269.3 563.38 269.486 563.48C269.67 563.578 269.862 563.662 270.053 563.753C270.246 563.845 270.436 563.942 270.636 564.022C270.82 564.098 271.011 564.159 271.2 564.228C271.411 564.305 271.618 564.384 271.832 564.45C272.023 564.506 272.214 564.548 272.406 564.597C272.623 564.652 272.84 564.713 273.061 564.758C273.284 564.803 273.507 564.828 273.732 564.859C273.926 564.888 274.118 564.923 274.314 564.944C274.739 564.986 275.165 565.008 275.592 565.008C276.018 565.008 276.445 564.986 276.87 564.944C277.067 564.925 277.257 564.889 277.451 564.859C277.676 564.827 277.901 564.8 278.123 564.758C278.346 564.713 278.561 564.652 278.778 564.597C278.97 564.548 279.161 564.508 279.351 564.45C279.567 564.384 279.775 564.305 279.986 564.228C280.173 564.161 280.362 564.098 280.546 564.022C280.745 563.939 280.937 563.842 281.131 563.75C281.32 563.661 281.511 563.577 281.696 563.478C281.882 563.378 282.061 563.264 282.242 563.155C282.423 563.045 282.606 562.944 282.782 562.827C282.979 562.695 283.167 562.548 283.356 562.405C283.504 562.292 283.657 562.189 283.803 562.07C284.115 561.814 284.414 561.544 284.701 561.258C284.718 561.241 284.737 561.227 284.753 561.211L326.221 519.742C331.282 514.681 331.282 506.475 326.221 501.417C321.159 496.356 312.954 496.356 307.893 501.417L288.548 520.764V468.25H344.707ZM275.593 193.52C267.495 193.52 260.906 186.931 260.906 178.833C260.906 170.734 267.495 164.145 275.593 164.145C283.692 164.145 290.281 170.733 290.281 178.833C290.281 186.933 283.692 193.52 275.593 193.52ZM359.395 317.062C359.395 325.161 352.806 331.75 344.707 331.75H288.551V217.306C300.531 213.259 310.018 203.772 314.065 191.792H359.393V317.062H359.395ZM359.395 165.875H314.067C308.645 149.823 293.453 138.23 275.595 138.23C253.206 138.23 234.99 156.445 234.99 178.834C234.99 196.694 246.584 211.884 262.636 217.306V331.75H206.479C198.381 331.75 191.792 325.161 191.792 317.062V40.6047C191.792 32.5062 198.379 25.9172 206.479 25.9172H344.709C352.807 25.9172 359.396 32.5062 359.396 40.6047V165.875H359.395ZM455.292 331.75C447.193 331.75 440.604 325.161 440.604 317.062V211.848L464.456 187.997C469.517 182.936 469.517 174.73 464.456 169.672L440.604 145.82V40.6047C440.604 32.5062 447.192 25.9172 455.292 25.9172H593.521C601.62 25.9172 608.209 32.5062 608.209 40.6047V317.062C608.209 325.161 601.621 331.75 593.521 331.75H537.365V217.306C553.417 211.884 565.011 196.692 565.011 178.834C565.011 156.445 546.795 138.23 524.406 138.23C502.017 138.23 483.801 156.445 483.801 178.834C483.801 196.694 495.395 211.884 511.446 217.306V331.75H455.292ZM593.52 468.25C601.618 468.25 608.207 474.837 608.207 482.937V759.395C608.207 767.494 601.62 774.083 593.52 774.083H455.29C447.192 774.083 440.603 767.494 440.603 759.395V482.937C440.603 474.839 447.19 468.25 455.29 468.25H511.446V520.764L492.101 501.417C487.039 496.356 478.834 496.356 473.775 501.417C468.714 506.478 468.714 514.684 473.775 519.742L515.243 561.211C515.261 561.228 515.279 561.242 515.295 561.258C515.582 561.541 515.881 561.812 516.193 562.07C516.339 562.189 516.492 562.294 516.64 562.406C516.831 562.548 517.015 562.695 517.214 562.828C517.39 562.945 517.573 563.048 517.754 563.156C517.936 563.266 518.114 563.38 518.3 563.48C518.484 563.578 518.676 563.662 518.867 563.753C519.061 563.845 519.25 563.942 519.45 564.022C519.634 564.098 519.825 564.159 520.014 564.228C520.225 564.305 520.432 564.384 520.646 564.45C520.837 564.506 521.028 564.548 521.22 564.597C521.437 564.652 521.654 564.713 521.875 564.758C522.098 564.803 522.321 564.828 522.546 564.859C522.74 564.888 522.932 564.923 523.128 564.944C523.553 564.986 523.979 565.008 524.406 565.008C524.832 565.008 525.259 564.986 525.684 564.944C525.881 564.925 526.071 564.889 526.265 564.859C526.49 564.827 526.715 564.8 526.937 564.758C527.161 564.713 527.375 564.652 527.592 564.597C527.784 564.548 527.975 564.508 528.165 564.45C528.381 564.384 528.589 564.305 528.8 564.228C528.989 564.161 529.176 564.098 529.361 564.022C529.559 563.939 529.751 563.842 529.945 563.75C530.134 563.661 530.325 563.577 530.511 563.478C530.697 563.378 530.875 563.264 531.056 563.155C531.237 563.045 531.42 562.944 531.596 562.827C531.793 562.695 531.979 562.548 532.17 562.405C532.318 562.292 532.471 562.189 532.617 562.07C532.929 561.814 533.228 561.544 533.515 561.258C533.532 561.241 533.551 561.227 533.567 561.211L575.036 519.742C580.096 514.681 580.096 506.475 575.036 501.417C569.973 496.356 561.768 496.356 556.707 501.417L537.362 520.764V468.25H593.52ZM524.406 193.52C516.307 193.52 509.718 186.931 509.718 178.833C509.718 170.734 516.307 164.145 524.406 164.145C532.504 164.145 539.093 170.733 539.093 178.833C539.093 186.933 532.504 193.52 524.406 193.52Z" fill="#0400FF"/>
<path d="M524.405 580.561C502.016 580.561 483.801 598.776 483.801 621.165C483.801 643.554 502.016 661.77 524.405 661.77C546.795 661.77 565.01 643.554 565.01 621.165C565.01 598.776 546.795 580.561 524.405 580.561ZM524.405 635.853C516.307 635.853 509.718 629.265 509.718 621.165C509.718 613.065 516.307 606.478 524.405 606.478C532.504 606.478 539.093 613.067 539.093 621.165C539.093 629.264 532.504 635.853 524.405 635.853Z" fill="#0400FF"/>
<path d="M275.593 580.561C253.204 580.561 234.988 598.776 234.988 621.165C234.988 643.554 253.204 661.77 275.593 661.77C297.982 661.77 316.198 643.554 316.198 621.165C316.198 598.776 297.984 580.561 275.593 580.561ZM275.593 635.853C267.495 635.853 260.905 629.265 260.905 621.165C260.905 613.065 267.495 606.478 275.593 606.478C283.691 606.478 290.28 613.067 290.28 621.165C290.28 629.264 283.691 635.853 275.593 635.853Z" fill="#0400FF"/>
</svg>
