<svg width="750" height="522" viewBox="0 0 750 522" fill="none" xmlns="http://www.w3.org/2000/svg">
<path d="M59.1563 0.328125L40.8437 21.625C68.9531 45.6875 92.2344 71 110.859 96.9375H0V125.063H129.031C154.531 169.281 167.188 215.219 167.188 261C167.188 306.781 154.531 352.719 129.031 396.938H0V425.063H110.859C92.2344 451 68.9531 476.313 40.8437 500.375L59.1563 521.625C94.4531 491.313 122.984 458.969 144.687 425.063H175.469C181.094 415.844 186.25 406.469 190.937 396.938H160.938C183.75 352.875 195.312 307.094 195.312 261C195.312 214.906 183.75 169.125 160.938 125.063H190.937C186.25 115.531 181.094 106.156 175.469 96.9375H144.687C123 63.0313 94.4531 30.5312 59.1563 0.328125ZM157.187 25.0625C219.687 96.7813 251.562 178.813 251.562 261C251.562 343.188 219.687 425.219 157.187 496.938H275C328.281 496.938 402.969 443.813 461.406 385.375C490.625 356.313 516.25 326.156 534.219 302.094C543.281 290.219 550.469 279.594 555.156 271.781C557.344 267.875 559.063 264.437 560.156 262.25C560.313 261.625 560.469 261.469 560.469 261C560.469 260.531 560.313 260.219 560.156 259.594C559.219 257.406 557.5 254.125 555.156 250.219C550.469 242.25 543.438 231.781 534.531 219.75C516.875 195.688 491.563 165.687 462.5 136.625C404.375 78.1875 329.844 25.0625 275 25.0625H157.187ZM625 225.063C605 225.063 589.062 241 589.062 261C589.062 281 605 296.938 625 296.938C645 296.938 660.938 281 660.938 261C660.938 241 645 225.063 625 225.063ZM687.5 246.938C688.438 251.469 689.062 256.156 689.062 261C689.062 265.844 688.438 270.531 687.5 275.063H750V246.938H687.5Z" fill="#FFEA00"/>
</svg>
