<svg width="800" height="800" viewBox="0 0 800 800" fill="none" xmlns="http://www.w3.org/2000/svg">
<g clip-path="url(#clip0_978_319)">
<path d="M786.551 252.631C793.529 252.631 799.182 246.975 799.182 240V88.675C799.182 64.2547 779.313 44.3844 754.891 44.3844H733.499V12.6312C733.499 5.65469 727.846 0 720.868 0H441.29C434.312 0 428.659 5.65625 428.659 12.6312V44.3844H45.107C20.6867 44.3844 0.816406 64.2531 0.816406 88.675V121.719V401.297V492.506V694.611V755.706C0.816406 780.131 20.6867 800 45.107 800H754.888C779.312 800 799.179 780.131 799.179 755.709V278.991C799.179 272.014 793.526 266.359 786.548 266.359C779.57 266.359 773.916 272.016 773.916 278.991V755.708C773.916 766.2 765.38 774.736 754.888 774.736H45.107C34.6164 774.736 26.0789 766.2 26.0789 755.708V707.245H57.832C64.8086 707.245 70.4633 701.589 70.4633 694.614V492.509C70.4633 485.533 64.807 479.878 57.832 479.878H26.0789V413.931H57.832C64.8086 413.931 70.4633 408.275 70.4633 401.3V121.719C70.4633 114.742 64.807 109.088 57.832 109.088H26.0789V88.675C26.0789 78.1844 34.6148 69.6469 45.107 69.6469H441.285H720.865H754.89C765.38 69.6469 773.918 78.1828 773.918 88.675V240C773.92 246.977 779.573 252.631 786.551 252.631ZM45.2008 505.141V681.983H26.0789V505.141H45.2008ZM45.2008 134.352V388.667H26.0789V134.352H45.2008ZM708.235 44.3844H453.92V25.2625H708.235V44.3844Z" fill="#A200FF"/>
<path d="M733.497 121.72C733.497 114.744 727.844 109.089 720.866 109.089H441.287C434.309 109.089 428.656 114.745 428.656 121.72V401.298C428.656 408.275 434.309 413.93 441.287 413.93H720.866C727.844 413.93 733.497 408.273 733.497 401.298V121.72ZM708.234 388.667H453.919V134.351H708.234V388.667Z" fill="#A200FF"/>
<path d="M469.393 302.245C469.393 309.222 475.047 314.877 482.024 314.877H498.549V331.403C498.549 338.38 504.204 344.034 511.18 344.034H526.338V359.192C526.338 366.169 531.991 371.823 538.969 371.823C545.947 371.823 551.6 366.167 551.6 359.192V344.034H568.443V359.192C568.443 366.169 574.096 371.823 581.074 371.823C588.052 371.823 593.705 366.167 593.705 359.192V344.034H610.547V359.192C610.547 366.169 616.2 371.823 623.179 371.823C630.157 371.823 635.81 366.167 635.81 359.192V344.034H650.968C657.946 344.034 663.599 338.378 663.599 331.403V314.877H680.125C687.104 314.877 692.757 309.22 692.757 302.245C692.757 295.27 687.104 289.614 680.125 289.614H663.599V272.772H680.125C687.104 272.772 692.757 267.116 692.757 260.141C692.757 253.164 687.104 247.509 680.125 247.509H663.599V230.667H680.125C687.104 230.667 692.757 225.011 692.757 218.036C692.757 211.059 687.104 205.405 680.125 205.405H663.599V191.614C663.599 184.638 657.944 178.983 650.968 178.983H635.81V161.092C635.81 154.116 630.157 148.461 623.179 148.461C616.2 148.461 610.547 154.117 610.547 161.092V178.986H593.705V161.092C593.705 154.116 588.052 148.461 581.074 148.461C574.096 148.461 568.443 154.117 568.443 161.092V178.986H551.6V161.092C551.6 154.116 545.946 148.461 538.969 148.461C531.991 148.461 526.338 154.117 526.338 161.092V178.986H511.18C504.202 178.986 498.549 184.642 498.549 191.617V205.408H482.024C475.046 205.408 469.393 211.064 469.393 218.039C469.393 225.016 475.047 230.67 482.024 230.67H498.549V247.513H482.024C475.046 247.513 469.393 253.169 469.393 260.144C469.393 267.12 475.047 272.775 482.024 272.775H498.549V289.617H482.024C475.047 289.616 469.393 295.269 469.393 302.245ZM523.813 204.245H638.339V318.772H523.813V204.245Z" fill="#A200FF"/>
<path d="M720.866 575.877C727.844 575.877 733.497 570.22 733.497 563.245V492.508C733.497 485.531 727.844 479.877 720.866 479.877H682.538V466.78C682.538 459.803 676.885 454.148 669.907 454.148C662.928 454.148 657.275 459.805 657.275 466.78V479.877H372.235C365.258 479.877 359.604 485.533 359.604 492.508C359.604 499.484 365.26 505.139 372.235 505.139H657.275V550.613H275.824V505.141H333.496C340.472 505.141 346.127 499.484 346.127 492.509C346.127 485.533 340.471 479.878 333.496 479.878H275.824V466.781C275.824 459.805 270.168 454.15 263.193 454.15C256.216 454.15 250.561 459.806 250.561 466.781V479.878H212.235C205.258 479.878 199.604 485.534 199.604 492.509V563.247C199.604 570.223 205.26 575.878 212.235 575.878H250.561V611.247H212.235C205.258 611.247 199.604 616.903 199.604 623.878V694.616C199.604 701.592 205.26 707.247 212.235 707.247H250.561V719.4C250.561 726.377 256.218 732.031 263.193 732.031C270.169 732.031 275.824 726.375 275.824 719.4V707.247H560.866C567.844 707.247 573.497 701.591 573.497 694.616C573.497 687.639 567.843 681.984 560.866 681.984H275.824V636.511H657.275V681.984H599.604C592.625 681.984 586.972 687.641 586.972 694.616C586.972 701.592 592.625 707.247 599.604 707.247H657.275V719.4C657.275 726.377 662.928 732.031 669.907 732.031C676.885 732.031 682.538 726.375 682.538 719.4V707.247H720.866C727.844 707.247 733.497 701.591 733.497 694.616V623.878C733.497 616.902 727.843 611.247 720.866 611.247H682.538V575.878H720.866V575.877ZM682.538 505.141H708.233V550.614H682.538V505.141ZM250.56 681.983H224.866V636.509H250.56V681.983ZM250.56 550.614H224.866V505.141H250.56V550.614ZM657.275 611.245H275.824V575.877H657.275V611.245ZM682.538 636.509H708.233V681.983H682.538V636.509Z" fill="#A200FF"/>
<path d="M218.129 401.298C218.129 408.275 223.785 413.93 230.76 413.93C237.737 413.93 243.391 408.273 243.391 401.298V175.439C243.391 168.462 237.735 162.808 230.76 162.808C223.784 162.808 218.129 168.464 218.129 175.439V401.298Z" fill="#A200FF"/>
<path d="M230.762 151.579C237.739 151.579 243.393 145.923 243.393 138.948V121.72C243.393 114.744 237.737 109.089 230.762 109.089C223.786 109.089 218.131 114.745 218.131 121.72V138.948C218.129 145.923 223.786 151.579 230.762 151.579Z" fill="#A200FF"/>
<path d="M319.283 401.298C319.283 408.275 324.939 413.93 331.914 413.93C338.891 413.93 344.546 408.273 344.546 401.298V175.439C344.546 168.462 338.889 162.808 331.914 162.808C324.938 162.808 319.283 168.464 319.283 175.439V401.298Z" fill="#A200FF"/>
<path d="M331.914 151.579C338.891 151.579 344.546 145.923 344.546 138.948V121.72C344.546 114.744 338.889 109.089 331.914 109.089C324.938 109.089 319.283 114.745 319.283 121.72V138.948C319.283 145.923 324.938 151.579 331.914 151.579Z" fill="#A200FF"/>
<path d="M281.338 360.211C288.315 360.211 293.97 354.554 293.97 347.579V121.72C293.97 114.744 288.313 109.089 281.338 109.089C274.362 109.089 268.707 114.745 268.707 121.72V347.579C268.707 354.554 274.362 360.211 281.338 360.211Z" fill="#A200FF"/>
<path d="M268.707 401.299C268.707 408.275 274.363 413.93 281.338 413.93C288.315 413.93 293.97 408.274 293.97 401.299V384.071C293.97 377.094 288.313 371.439 281.338 371.439C274.362 371.439 268.707 377.096 268.707 384.071V401.299Z" fill="#A200FF"/>
<path d="M382.491 360.211C389.467 360.211 395.122 354.554 395.122 347.579V121.72C395.122 114.744 389.466 109.089 382.491 109.089C375.516 109.089 369.859 114.745 369.859 121.72V347.579C369.859 354.554 375.516 360.211 382.491 360.211Z" fill="#A200FF"/>
<path d="M369.859 401.299C369.859 408.275 375.516 413.93 382.491 413.93C389.466 413.93 395.122 408.274 395.122 401.299V384.071C395.122 377.094 389.466 371.439 382.491 371.439C375.516 371.439 369.859 377.096 369.859 384.071V401.299Z" fill="#A200FF"/>
<path d="M581.077 222.807C560.491 222.807 543.742 239.555 543.742 260.141C543.742 280.727 560.491 297.475 581.077 297.475C601.663 297.475 618.409 280.727 618.409 260.141C618.408 239.554 601.663 222.807 581.077 222.807ZM581.077 272.213C574.42 272.213 569.006 266.799 569.006 260.143C569.006 253.486 574.42 248.072 581.077 248.072C587.731 248.072 593.145 253.486 593.145 260.143C593.145 266.797 587.731 272.213 581.077 272.213Z" fill="#A200FF"/>
</g>
<defs>
<clipPath id="clip0_978_319">
<rect width="800" height="800" fill="white"/>
</clipPath>
</defs>
</svg>
